<?xml version="1.0" encoding="UTF-8"?>
<svg version="1.1" viewBox="0 0 18.521 18.521" xmlns="http://www.w3.org/2000/svg">
 <path d="m4.013 12.965h10.495c0.84885 0 1.5434-0.69455 1.5434-1.5434v-6.7909c0-0.84891-0.69455-1.5434-1.5434-1.5434h-10.495c-0.84885 0-1.5434 0.69455-1.5434 1.5434v6.7909c0 0.84885 0.69455 1.5434 1.5434 1.5434zm-0.30868-8.3345c0-0.16399 0.14469-0.30869 0.30868-0.30869h10.495c0.16399 0 0.30868 0.1447 0.30868 0.30869v6.7909c0 0.16399-0.14469 0.30868-0.30868 0.30868h-10.495c-0.16399 0-0.30868-0.14469-0.30868-0.30868zm13.273 8.9517h-16.978v0.92603c0 0.51126 0.69455 0.92603 1.5434 0.92603h15.434c0.84885 0 1.5434-0.41479 1.5434-0.92603v-0.92603zm-6.9455 0.92603h-1.5434c-0.086819 0-0.15434-0.06753-0.15434-0.15434 0-0.08682 0.067527-0.15434 0.15434-0.15434h1.5434c0.08682 0 0.15434 0.06752 0.15434 0.15434 0 0.08681-0.06753 0.15434-0.15434 0.15434z" stroke-width=".26458"/>
</svg>
