<?xml version="1.0" encoding="UTF-8"?>
<svg version="1.1" viewBox="0 0 18.521 18.521" xmlns="http://www.w3.org/2000/svg">
 <g transform="matrix(.52198 0 0 .52198 -29.461 -50.373)" stroke-width="1.9158">
  <g stroke-width="1.9158" aria-label="">
   <path d="m83.76 113.32-8.8394 2.7873c-0.2464 0.077-0.49279 0.10779-0.73918 0.10779s-0.49279-0.0308-0.73918-0.10779l-8.8394-2.7873-0.27719 4.8663c-0.1232 2.1714 4.4197 3.9423 9.8558 3.9423s9.979-1.771 9.8558-3.9423zm8.1618-4.9895c0-0.2156-0.1386-0.4004-0.33879-0.47739l-17.248-5.4207c-0.0616-0.0154-0.1078-0.0154-0.154-0.0154s-0.0924 0-0.154 0.0154l-17.248 5.4207c-0.2002 0.077-0.33879 0.26179-0.33879 0.47739 0 0.21559 0.1386 0.40039 0.33879 0.47739l5.1281 1.6016c-0.95478 1.3398-1.4168 3.2801-1.5092 5.0819-0.58519 0.33879-1.001 0.97018-1.001 1.7094 0 0.69299 0.35419 1.2936 0.89318 1.6478l-0.89318 6.668c-0.0154 0.1386 0.0308 0.2772 0.1232 0.38499 0.0924 0.1078 0.231 0.1694 0.36959 0.1694h2.9567c0.1386 0 0.27719-0.0616 0.36959-0.1694 0.0924-0.10779 0.1386-0.24639 0.1232-0.38499l-0.89318-6.668c0.53899-0.35419 0.89318-0.95478 0.89318-1.6478 0-0.72378-0.38499-1.3398-0.97018-1.6786 0.1232-2.079 0.73918-3.7729 1.617-4.4659l10.041 3.1723c0.0616 0.0154 0.1078 0.0154 0.154 0.0154s0.0924 0 0.154-0.0154l17.248-5.4207c0.2002-0.077 0.33879-0.2618 0.33879-0.47739z" stroke-width="1.9158"/>
  </g>
 </g>
</svg>
