<?xml version="1.0" encoding="UTF-8" standalone="no"?>
<!-- Created with Inkscape (http://www.inkscape.org/) -->

<svg
   width="169.33069mm"
   height="135.46667mm"
   viewBox="0 0 169.33069 135.46667"
   version="1.1"
   id="svg5"
   inkscape:version="1.1.1 (3bf5ae0d25, 2021-09-20)"
   sodipodi:docname="tractor-solid.svg"
   xmlns:inkscape="http://www.inkscape.org/namespaces/inkscape"
   xmlns:sodipodi="http://sodipodi.sourceforge.net/DTD/sodipodi-0.dtd"
   xmlns="http://www.w3.org/2000/svg"
   xmlns:svg="http://www.w3.org/2000/svg">
  <sodipodi:namedview
     id="namedview7"
     pagecolor="#ffffff"
     bordercolor="#666666"
     borderopacity="1.0"
     inkscape:pageshadow="2"
     inkscape:pageopacity="0.0"
     inkscape:pagecheckerboard="0"
     inkscape:document-units="mm"
     showgrid="false"
     fit-margin-top="0"
     fit-margin-left="0"
     fit-margin-right="0"
     fit-margin-bottom="0"
     inkscape:zoom="0.72337262"
     inkscape:cx="287.54199"
     inkscape:cy="172.11047"
     inkscape:window-width="1920"
     inkscape:window-height="1001"
     inkscape:window-x="-9"
     inkscape:window-y="-9"
     inkscape:window-maximized="1"
     inkscape:current-layer="layer1" />
  <defs
     id="defs2" />
  <g
     inkscape:label="Capa 1"
     inkscape:groupmode="layer"
     id="layer1"
     transform="translate(-25.429482,-22.976022)">
    <path
       fill="currentColor"
       d="m 165.12948,111.87603 c -12.85875,0 -23.28333,10.42458 -23.28333,23.28333 0,12.85875 10.42458,23.28334 23.28333,23.28334 12.85875,0 23.28333,-10.42459 23.28333,-23.28334 0,-12.85875 -10.42458,-23.28333 -23.28333,-23.28333 z m 0,29.63333 c -3.50044,0 -6.35,-2.84956 -6.35,-6.35 0,-3.50043 2.84956,-6.35 6.35,-6.35 3.50044,0 6.35,2.84957 6.35,6.35 0,3.50044 -2.84956,6.35 -6.35,6.35 z m 21.16667,-76.199999 h -16.93334 v -10.63625 c 0,-3.735916 1.24354,-7.344833 3.47927,-10.276416 1.16946,-1.534584 0.93927,-3.720042 -0.34925,-5.15673 l -5.72293,-6.394979 c -1.76213,-1.971145 -4.84717,-1.830916 -6.53521,0.206375 -5.00592,6.037792 -7.80521,13.686896 -7.80521,21.62175 v 10.63625 H 125.35467 L 110.51419,30.685986 A 12.677246,12.677246 0 0 0 98.838128,22.976028 H 63.529482 c -7.003521,0 -12.7,5.696479 -12.7,12.7 v 38.76675 c -2.283354,-1.780646 -5.545667,-1.709208 -7.643813,0.388937 l -8.231187,8.231188 c -2.272771,2.272771 -2.272771,5.958417 0,8.231187 l 1.338792,1.338792 c -1.320272,2.450042 -2.370667,4.979458 -3.151188,7.598828 h -1.891771 c -3.214688,0 -5.820833,2.60615 -5.820833,5.82084 v 11.64167 c 0,3.21468 2.606145,5.82083 5.820833,5.82083 h 1.889125 c 0.783167,2.62202 1.830917,5.14879 3.151188,7.60148 l -1.338792,1.33879 c -2.272771,2.27277 -2.272771,5.95842 0,8.23119 l 8.231188,8.23119 c 2.27277,2.27277 5.958416,2.27277 8.231187,0 l 1.338792,-1.3388 c 2.450041,1.32028 4.979458,2.37067 7.598833,3.15119 v 1.89177 c 0,3.21469 2.606146,5.82084 5.820833,5.82084 h 11.641667 c 3.214688,0 5.820833,-2.60615 5.820833,-5.82084 v -1.88912 c 2.619375,-0.78052 5.148792,-1.83092 7.598834,-3.15119 l 1.338791,1.33879 c 2.272771,2.27277 5.958417,2.27277 8.231186,0 l 8.23119,-8.23119 c 2.27277,-2.27277 2.27277,-5.95841 0,-8.23118 l -1.33879,-1.33879 c 1.32027,-2.45005 2.37066,-4.97946 3.15119,-7.59884 h 1.89441 c 3.21469,0 5.82084,-2.60614 5.82084,-5.82083 v -1.5875 h 21.30953 c 5.79703,-7.67027 14.90134,-12.7 25.25713,-12.7 4.93183,0 9.54352,1.21973 13.70542,3.22791 l 13.44612,-13.446121 c 1.5875,-1.5875 2.47915,-3.741209 2.47915,-5.987521 v -13.43025 c 0.003,-4.675188 -3.78884,-8.466667 -8.46402,-8.466667 z M 71.996149,133.0427 c -11.689292,0 -21.166667,-9.47738 -21.166667,-21.16667 0,-11.68929 9.477375,-21.166669 21.166667,-21.166669 11.689291,0 21.166666,9.477379 21.166666,21.166669 0,11.68929 -9.477375,21.16667 -21.166666,21.16667 z M 77.816982,65.309361 H 67.762815 v -25.4 h 28.281313 l 10.887602,25.4 z"
       id="path9"
       style="fill:#ff0000;fill-opacity:1;stroke-width:0.264583"
       inkscape:export-filename="C:\Users\valel\path9.png"
       inkscape:export-xdpi="96"
       inkscape:export-ydpi="96" />
  </g>
</svg>
