<?xml version="1.0" encoding="UTF-8" standalone="no"?>
<!-- Created with Inkscape (http://www.inkscape.org/) -->

<svg
   width="119.99998"
   height="96.001518"
   viewBox="0 0 31.749998 25.400399"
   version="1.1"
   id="svg5"
   inkscape:version="1.1.1 (3bf5ae0d25, 2021-09-20)"
   sodipodi:docname="tractor-solid.svg"
   xmlns:inkscape="http://www.inkscape.org/namespaces/inkscape"
   xmlns:sodipodi="http://sodipodi.sourceforge.net/DTD/sodipodi-0.dtd"
   xmlns="http://www.w3.org/2000/svg"
   xmlns:svg="http://www.w3.org/2000/svg">
  <sodipodi:namedview
     id="namedview7"
     pagecolor="#ffffff"
     bordercolor="#666666"
     borderopacity="1.0"
     inkscape:pageshadow="2"
     inkscape:pageopacity="0.0"
     inkscape:pagecheckerboard="0"
     inkscape:document-units="px"
     showgrid="false"
     fit-margin-top="0"
     fit-margin-left="0"
     fit-margin-right="0"
     fit-margin-bottom="0"
     inkscape:zoom="0.36168631"
     inkscape:cx="96.768938"
     inkscape:cy="529.46433"
     inkscape:window-width="1920"
     inkscape:window-height="1001"
     inkscape:window-x="-9"
     inkscape:window-y="-9"
     inkscape:window-maximized="1"
     inkscape:current-layer="layer1"
     units="px" />
  <defs
     id="defs2" />
  <g
     inkscape:label="Capa 1"
     inkscape:groupmode="layer"
     id="layer1"
     transform="translate(-25.429486,-22.976026)">
    <path
       fill="currentColor"
       d="m 51.623639,39.645033 c -2.411053,0 -4.365692,1.954639 -4.365692,4.365691 0,2.411055 1.954639,4.365696 4.365692,4.365696 2.411055,0 4.365693,-1.954641 4.365693,-4.365696 0,-2.411052 -1.954638,-4.365691 -4.365693,-4.365691 z m 0,5.556335 c -0.656342,0 -1.190644,-0.5343 -1.190644,-1.190644 0,-0.65634 0.534302,-1.190642 1.190644,-1.190642 0.656344,0 1.190643,0.534302 1.190643,1.190642 0,0.656344 -0.534299,1.190644 -1.190643,1.190644 z m 3.968813,-14.287721 h -3.17505 v -1.994329 c 0,-0.700495 0.233166,-1.377177 0.652372,-1.926858 0.219279,-0.287738 0.176118,-0.697518 -0.06548,-0.966901 l -1.073068,-1.199078 c -0.330404,-0.369595 -0.908857,-0.343302 -1.22537,0.0387 -0.938625,1.132104 -1.4635,2.566333 -1.4635,4.054141 v 1.994329 h -5.076605 l -2.782634,-6.491985 a 2.3770207,2.3770207 0 0 0 -2.189296,-1.445639 h -6.620474 c -1.31318,0 -2.381287,1.068106 -2.381287,2.381287 v 7.268879 c -0.428135,-0.333877 -1.039829,-0.320482 -1.433237,0.07293 l -1.543372,1.543371 c -0.426151,0.426152 -0.426151,1.117221 0,1.543372 l 0.251028,0.251027 c -0.247555,0.45939 -0.444507,0.933663 -0.590857,1.424803 h -0.354713 c -0.602763,0 -1.091423,0.488661 -1.091423,1.091424 v 2.182848 c 0,0.602761 0.48866,1.091422 1.091423,1.091422 h 0.354217 c 0.146846,0.491636 0.343302,0.965413 0.590857,1.4253 l -0.251028,0.251028 c -0.426151,0.426151 -0.426151,1.117219 0,1.54337 l 1.543372,1.543373 c 0.426151,0.426151 1.11722,0.426151 1.543372,0 l 0.251027,-0.251029 c 0.45939,0.247557 0.933663,0.444508 1.424803,0.590857 v 0.354714 c 0,0.602763 0.48866,1.091424 1.091424,1.091424 h 2.182846 c 0.602764,0 1.091423,-0.488661 1.091423,-1.091424 v -0.354217 c 0.491141,-0.146349 0.965414,-0.343302 1.424804,-0.590857 l 0.251027,0.251027 c 0.426151,0.426151 1.117221,0.426151 1.543371,0 l 1.543373,-1.543373 c 0.426151,-0.426149 0.426151,-1.117219 0,-1.54337 L 40.854766,43.25318 c 0.247554,-0.459392 0.444505,-0.933664 0.590857,-1.424805 h 0.355207 c 0.602764,0 1.091425,-0.488659 1.091425,-1.091423 v -0.297661 h 3.995599 c 1.086961,-1.438198 2.794045,-2.381287 4.735785,-2.381287 0.924734,0 1.789437,0.228703 2.569807,0.605243 l 2.521186,-2.521187 c 0.297661,-0.297661 0.464849,-0.701488 0.464849,-1.122678 V 32.501171 C 57.18001,31.62456 56.469062,30.913647 55.592452,30.913647 Z M 34.160868,43.613846 c -2.191776,0 -3.968812,-1.777037 -3.968812,-3.968813 0,-2.191776 1.777036,-3.968812 3.968812,-3.968812 2.191776,0 3.968812,1.777036 3.968812,3.968812 0,2.191776 -1.777036,3.968813 -3.968812,3.968813 z m 1.091423,-12.700199 h -1.885186 v -4.762575 h 5.302829 l 2.041458,4.762575 z"
       id="path9"
       style="fill:#ff0000;fill-opacity:1;stroke-width:0.0496102"
       inkscape:export-filename="C:\Users\valel\path9.png"
       inkscape:export-xdpi="96"
       inkscape:export-ydpi="96" />
  </g>
</svg>
