<?xml version="1.0" encoding="UTF-8" standalone="no"?>
<!-- Created with Inkscape (http://www.inkscape.org/) -->

<svg
   width="39.686867mm"
   height="31.750002mm"
   viewBox="0 0 39.686867 31.750002"
   version="1.1"
   id="svg6301"
   inkscape:version="1.1.1 (3bf5ae0d25, 2021-09-20)"
   sodipodi:docname="tractor-solid.svg"
   xmlns:inkscape="http://www.inkscape.org/namespaces/inkscape"
   xmlns:sodipodi="http://sodipodi.sourceforge.net/DTD/sodipodi-0.dtd"
   xmlns="http://www.w3.org/2000/svg"
   xmlns:svg="http://www.w3.org/2000/svg">
  <sodipodi:namedview
     id="namedview6303"
     pagecolor="#ffffff"
     bordercolor="#666666"
     borderopacity="1.0"
     inkscape:pageshadow="2"
     inkscape:pageopacity="0.0"
     inkscape:pagecheckerboard="0"
     inkscape:document-units="mm"
     showgrid="false"
     fit-margin-top="0"
     fit-margin-left="0"
     fit-margin-right="0"
     fit-margin-bottom="0"
     inkscape:zoom="0.69753788"
     inkscape:cx="192.10426"
     inkscape:cy="-134.0429"
     inkscape:window-width="1920"
     inkscape:window-height="1001"
     inkscape:window-x="-9"
     inkscape:window-y="-9"
     inkscape:window-maximized="1"
     inkscape:current-layer="layer1" />
  <defs
     id="defs6298" />
  <g
     inkscape:label="Capa 1"
     inkscape:groupmode="layer"
     id="layer1"
     transform="translate(-54.227185,-183.6883)">
    <path
       fill="currentColor"
       d="m 86.969359,204.52423 c -3.013769,0 -5.457029,2.44327 -5.457029,5.45703 0,3.01378 2.44326,5.45704 5.457029,5.45704 3.01377,0 5.457029,-2.44326 5.457029,-5.45704 0,-3.01376 -2.443259,-5.45703 -5.457029,-5.45703 z m 0,6.94532 c -0.820414,0 -1.488281,-0.66787 -1.488281,-1.48829 0,-0.82041 0.667867,-1.48828 1.488281,-1.48828 0.820417,0 1.48828,0.66787 1.48828,1.48828 0,0.82042 -0.667863,1.48829 -1.48828,1.48829 z m 4.960937,-17.85938 h -3.968749 v -2.49286 c 0,-0.87561 0.291453,-1.72145 0.815452,-2.40854 0.274095,-0.35967 0.220144,-0.87189 -0.08185,-1.2086 l -1.341314,-1.49883 c -0.412999,-0.46199 -1.136053,-0.42912 -1.531688,0.0484 -1.173263,1.41511 -1.829347,3.20786 -1.829347,5.0676 v 2.49287 h -6.345656 l -3.478237,-8.11486 A 2.9712289,2.9712289 0 0 0 71.432332,183.6883 H 63.15687 c -1.641449,0 -2.976562,1.33512 -2.976562,2.97657 v 9.08595 c -0.53516,-0.41734 -1.299765,-0.40059 -1.791517,0.0911 l -1.929185,1.92918 c -0.53268,0.53268 -0.53268,1.3965 0,1.92918 l 0.31378,0.31378 c -0.309439,0.57423 -0.555625,1.16706 -0.73856,1.78097 h -0.443384 c -0.753442,0 -1.364257,0.61082 -1.364257,1.36427 v 2.72852 c 0,0.75344 0.610815,1.36425 1.364257,1.36425 h 0.442764 c 0.183555,0.61453 0.429121,1.20675 0.73856,1.7816 l -0.31378,0.31378 c -0.53268,0.53268 -0.53268,1.39649 0,1.92918 l 1.929185,1.92919 c 0.53268,0.53268 1.396502,0.53268 1.929184,0 l 0.313779,-0.31379 c 0.574228,0.30945 1.16706,0.55563 1.780975,0.73857 v 0.44338 c 0,0.75344 0.610816,1.36425 1.364259,1.36425 h 2.728514 c 0.753443,0 1.364258,-0.61081 1.364258,-1.36425 v -0.44277 c 0.613916,-0.18293 1.206748,-0.42912 1.780976,-0.73855 l 0.313779,0.31377 c 0.532681,0.53268 1.396504,0.53268 1.929183,0 l 1.929186,-1.92918 c 0.532681,-0.53268 0.532681,-1.39651 0,-1.92918 l -0.313784,-0.31379 c 0.309438,-0.57423 0.555623,-1.16707 0.73856,-1.78098 h 0.444002 c 0.753443,0 1.36426,-0.61082 1.36426,-1.36426 v -0.37206 h 4.994419 c 1.35868,-1.79773 3.492501,-2.97657 5.919638,-2.97657 1.155899,0 2.236761,0.28587 3.212207,0.75654 l 3.151433,-3.15143 c 0.37207,-0.37207 0.581052,-0.87685 0.581052,-1.40332 v -3.14772 c 6.61e-4,-1.09574 -0.88801,-1.98438 -1.983755,-1.98438 z m -26.789056,15.875 c -2.739677,0 -4.960937,-2.22125 -4.960937,-4.96094 0,-2.73968 2.22126,-4.96093 4.960937,-4.96093 2.739677,0 4.960937,2.22125 4.960937,4.96093 0,2.73969 -2.22126,4.96094 -4.960937,4.96094 z m 1.364257,-15.875 h -2.356445 v -5.95312 h 6.628432 l 2.551782,5.95312 z"
       id="path9"
       style="fill:#ff0000;fill-opacity:1;stroke-width:0.0620118"
       inkscape:export-filename="C:\Users\valel\path9.png"
       inkscape:export-xdpi="96"
       inkscape:export-ydpi="96" />
  </g>
</svg>
