<?xml version="1.0" encoding="UTF-8"?>
<svg width="70" height="70" version="1.1" viewBox="0 0 18.521 18.521" xmlns="http://www.w3.org/2000/svg">
 <path d="m6.7141 8.3343h1.6206v1.6206a0.23151 0.23151 0 0 0 0.23151 0.23152h1.3891a0.23151 0.23151 0 0 0 0.23151-0.23152v-1.6206h1.6206a0.23151 0.23151 0 0 0 0.23151-0.23151v-1.3891a0.23151 0.23151 0 0 0-0.23151-0.23151h-1.6206v-1.6206a0.23151 0.23151 0 0 0-0.23151-0.2315h-1.3891a0.23151 0.23151 0 0 0-0.23151 0.2315v1.6206h-1.6206a0.23151 0.23151 0 0 0-0.23151 0.23151v1.3891a0.23151 0.23151 0 0 0 0.23151 0.23151zm9.9547-5.0932a1.3931 1.3931 0 0 0-1.3891-1.3891h-12.038a1.3931 1.3931 0 0 0-1.3891 1.3891v9.7234h14.817zm-1.8521 7.8716h-11.112v-7.4083h11.112zm3.2412 2.7781h-7.0167c-0.02142 0.57328-0.42569 0.92601-0.94743 0.92601h-1.7595c-0.54087 0-0.95497-0.50556-0.94832-0.92601h-6.9229a0.46302 0.46302 0 0 0-0.46302 0.46302v0.46302a1.8576 1.8576 0 0 0 1.8521 1.8521h14.817a1.8576 1.8576 0 0 0 1.8521-1.8521v-0.46302a0.46302 0.46302 0 0 0-0.46302-0.46302z" fill="currentColor" stroke-width=".26458"/>
</svg>
