<?xml version="1.0" encoding="UTF-8"?>
<svg width="70" height="70" version="1.1" viewBox="0 0 18.521 18.521" xmlns="http://www.w3.org/2000/svg">
 <path d="m8.6433 9.2557c0 1.3602-1.1093 2.4695-2.4695 2.4695s-2.4695-1.1093-2.4695-2.4695 1.1093-2.4695 2.4695-2.4695 2.4695 1.1093 2.4695 2.4695zm7.408 4.9389c0 0.67524-0.54984 1.2347-1.2347 1.2347-0.67524 0-1.2347-0.54984-1.2347-1.2347 0-0.67524 0.55948-1.2348 1.2347-1.2348s1.2347 0.55949 1.2347 1.2348zm0-9.8779c0 0.67525-0.54984 1.2348-1.2347 1.2348-0.67524 0-1.2347-0.54984-1.2347-1.2348 0-0.67524 0.55948-1.2347 1.2347-1.2347s1.2347 0.55949 1.2347 1.2347zm-3.7042 4.0611c0-0.13505-0.09647-0.26045-0.23151-0.28939l-1.4662-0.22186c-0.08682-0.2701-0.20257-0.53055-0.32798-0.79102 0.2701-0.3762 0.55949-0.72347 0.83926-1.0997 0.03859-0.057878 0.06753-0.11576 0.06753-0.18327 0-0.2701-1.1383-1.3119-1.3891-1.5434-0.057878-0.048244-0.1254-0.077175-0.20257-0.077175-0.067526 0-0.13505 0.019268-0.19293 0.067512l-1.1383 0.85853c-0.23151-0.11576-0.47267-0.22186-0.72348-0.29904l-0.22186-1.4759c-0.01929-0.13505-0.15434-0.24116-0.28939-0.24116h-1.7942c-0.13505 0-0.25081 0.096465-0.28939 0.23151-0.1254 0.47267-0.17363 1.0032-0.22186 1.4855-0.26045 0.086816-0.50161 0.18328-0.74277 0.30868l-1.1093-0.86816c-0.057878-0.038609-0.1254-0.067512-0.20257-0.067512-0.27974 0-1.3602 1.1672-1.5531 1.4277-0.048229 0.057878-0.067526 0.1254-0.067526 0.19293 0 0.067512 0.028939 0.13505 0.067526 0.19292 0.30869 0.36656 0.59807 0.72348 0.86816 1.1093-0.1254 0.24115-0.23151 0.48231-0.30869 0.73314l-1.4952 0.23151c-0.1254 0.019268-0.22186 0.16398-0.22186 0.28939v1.7846c0 0.13504 0.096465 0.26045 0.23151 0.27974l1.4662 0.23152c0.086816 0.2701 0.20257 0.53055 0.33762 0.79102-0.27975 0.3762-0.56913 0.73314-0.84889 1.0997-0.038588 0.05788-0.067526 0.11576-0.067526 0.18328 0 0.27974 1.1383 1.3119 1.3891 1.5434 0.057878 0.04824 0.1254 0.07718 0.20257 0.07718 0.067526 0 0.14469-0.01927 0.19293-0.06751l1.1383-0.85853c0.23151 0.11576 0.47267 0.22187 0.72348 0.29904l0.22186 1.4759c0.01929 0.13505 0.15434 0.24116 0.28939 0.24116h1.7942c0.13505 0 0.25081-0.09647 0.28939-0.23151 0.1254-0.47267 0.17363-1.0032 0.22186-1.4952 0.26045-0.07717 0.50161-0.17363 0.74277-0.29904l1.1093 0.86816c0.057878 0.03861 0.1254 0.06751 0.20257 0.06751 0.27974 0 1.3602-1.1768 1.5531-1.4373 0.04823-0.04824 0.06753-0.11576 0.06753-0.18327 0-0.07718-0.02894-0.13505-0.06753-0.19293-0.30868-0.36656-0.59807-0.72347-0.86816-1.1093 0.1254-0.24116 0.23151-0.48232 0.30868-0.73314l1.4952-0.23152c0.1254-0.01927 0.22186-0.16398 0.22186-0.28939zm6.1736 5.1415c0-0.1447-1.2444-0.27975-1.4373-0.29904-0.07717-0.17363-0.17363-0.34727-0.28939-0.50161 0.08682-0.19293 0.49196-1.1576 0.49196-1.3312 0-0.01927-0.0096-0.04824-0.03859-0.06751-0.11576-0.06751-1.1479-0.67524-1.1962-0.67524l-0.05788 0.01927c-0.32798 0.32798-0.61736 0.70418-0.88743 1.0804-0.09647-0.0096-0.19293-0.01927-0.28939-0.01927-0.09647 0-0.19293 0.0096-0.28939 0.01927-0.09646-0.1447-0.81992-1.0997-0.94531-1.0997-0.04823 0-1.0804 0.61736-1.1962 0.67524-0.02894 0.01927-0.03859 0.04824-0.03859 0.06751 0 0.16398 0.40514 1.1383 0.49196 1.3312-0.11576 0.15434-0.21222 0.32798-0.28939 0.50161-0.19293 0.01927-1.4373 0.15434-1.4373 0.29904v1.3505c0 0.14469 1.2444 0.27974 1.4373 0.29904 0.07717 0.18328 0.17363 0.34726 0.28939 0.50161-0.08682 0.19292-0.49196 1.1672-0.49196 1.3312 0 0.01927 0.0096 0.04824 0.03859 0.06751 0.11576 0.06751 1.1479 0.68489 1.1962 0.68489 0.1254 0 0.8489-0.96465 0.94531-1.1093 0.09647 0.0096 0.19292 0.01927 0.28939 0.01927 0.09647 0 0.19293-0.0096 0.28939-0.01927 0.09647 0.14469 0.81992 1.1093 0.94531 1.1093 0.04823 0 1.0804-0.61737 1.1962-0.68489 0.02894-0.01927 0.03859-0.03861 0.03859-0.06751 0-0.17363-0.40514-1.1383-0.49196-1.3312 0.11576-0.15434 0.21222-0.31833 0.28939-0.50161 0.19293-0.01927 1.4373-0.15434 1.4373-0.29904zm0-9.8779c0-0.14469-1.2444-0.27974-1.4373-0.29904-0.07717-0.17363-0.17363-0.34727-0.28939-0.50161 0.08682-0.19292 0.49196-1.1576 0.49196-1.3312 0-0.019268-0.0096-0.048243-0.03859-0.067512-0.11575-0.067512-1.1479-0.67525-1.1962-0.67525l-0.05788 0.019268c-0.32798 0.32798-0.61736 0.70418-0.88743 1.0804-0.09647-0.00963-0.19293-0.019268-0.28939-0.019268-0.09647 0-0.19293 0.00963-0.28939 0.019268-0.09646-0.14469-0.81992-1.0997-0.94531-1.0997-0.04823 0-1.0804 0.61737-1.1962 0.67525-0.02894 0.019268-0.03859 0.048243-0.03859 0.067512 0 0.16399 0.40514 1.1383 0.49196 1.3312-0.11576 0.15434-0.21222 0.32798-0.28939 0.50161-0.19293 0.019268-1.4373 0.15434-1.4373 0.29904v1.3505c0 0.14469 1.2444 0.27974 1.4373 0.29904 0.07717 0.18327 0.17363 0.34727 0.28939 0.50161-0.08682 0.19292-0.49196 1.1672-0.49196 1.3312 0 0.019268 0.0096 0.048243 0.03859 0.067512 0.11576 0.067512 1.1479 0.68489 1.1962 0.68489 0.1254 0 0.8489-0.96465 0.94531-1.1093 0.09647 0.00963 0.19292 0.019268 0.28939 0.019268 0.09647 0 0.19293-0.00963 0.28939-0.019268 0.09647 0.14469 0.81992 1.1093 0.94531 1.1093 0.04823 0 1.0804-0.61736 1.1962-0.68489 0.02894-0.019268 0.03859-0.038609 0.03859-0.067512 0-0.17364-0.40514-1.1383-0.49196-1.3312 0.11576-0.15434 0.21222-0.31833 0.28939-0.50161 0.19293-0.019268 1.4373-0.15434 1.4373-0.29904z" stroke-width=".26458"/>
</svg>
