<svg width="232.91" height="232.91" version="1.1" viewBox="0 0 61.625 61.625" xmlns="http://www.w3.org/2000/svg">
 <g transform="translate(-90.527 -141.32)">
  <path d="m93.169 141.32h56.34c1.4638 0 2.6423 1.1785 2.6423 2.6423v56.34c0 1.4638-1.1785 2.6423-2.6423 2.6423h-56.34c-1.4639 0-2.6423-1.1785-2.6423-2.6423v-56.34c0-1.4638 1.1785-2.6423 2.6423-2.6423z" fill="#ccc" opacity=".75" stop-color="#000000" stroke-linecap="round" stroke-width="1.121" style="paint-order:markers stroke fill"/>
  <path d="m92.753 199.3h57.172c-0.11993-0.94408-0.15914-2.1916-0.68327-3.0053-0.98144-1.5238-3.02-2.3811-4.6118-3.0987-3.3277-1.5001-6.7712-2.726-10.089-4.2493-1.3343-0.61264-2.6473-1.295-3.8639-2.1218-0.40765-0.27706-1.105-0.64671-1.2956-1.123-0.43397-1.0849-0.207-2.7106-0.207-3.8611 0-0.46646-0.0964-1.0603 0.0712-1.5026 0.57551-1.5197 1.9054-2.9681 2.748-4.3648 0.71082-1.1784 1.5344-2.4052 1.9685-3.7208 0.24994-0.7574 0.21223-1.6298 0.52334-2.3613 0.24708-0.58109 0.73279-1.0843 1.0352-1.6458 0.47398-0.88005 0.79633-1.8849 0.99174-2.8622 0.17846-0.8925 0.22175-1.9955-0.0895-2.8622-0.14762-0.41108-0.62267-0.72263-0.67304-1.1449-0.15284-1.2804 0.16164-2.6369 0.0728-3.9355-0.159-2.3211-1.0376-4.6253-2.3855-6.5114-5.5922-7.8252-18.122-7.9966-23.948-0.35777-1.6586 2.1747-2.5187 4.7302-2.7043 7.4416-0.0688 1.0052 0.16651 2.0056 0.13503 3.0052-0.0147 0.46381-0.41101 0.64449-0.64478 1.0019-0.28393 0.43412-0.41323 0.98838-0.42582 1.5026-0.0392 1.5944 0.33158 3.2446 1.1034 4.651 0.37938 0.69128 1.038 1.3015 1.3532 2.0035 0.41087 0.9151 0.30489 1.9843 0.75433 2.9337 0.71275 1.5059 1.7001 2.9397 2.6655 4.2933 0.47676 0.66838 1.1883 1.3895 1.504 2.1466 0.4113 0.98608 0.27477 2.5218 0.27477 3.5777 0 0.75175 0.1024 1.8864-0.23741 2.5757-0.23291 0.47247-0.84341 0.76906-1.2652 1.0498-1.1866 0.78953-2.484 1.426-3.7924 1.9859-3.2125 1.3749-6.5232 2.5009-9.7314 3.8852-1.6661 0.71898-3.6985 1.601-4.8113 3.0969-0.6987 0.93936-0.8637 2.4274-0.91309 3.5777z" fill="#fff"/>
 </g>
</svg>
