<?xml version="1.0" encoding="UTF-8" standalone="no"?>
<svg
   xmlns:dc="http://purl.org/dc/elements/1.1/"
   xmlns:cc="http://creativecommons.org/ns#"
   xmlns:rdf="http://www.w3.org/1999/02/22-rdf-syntax-ns#"
   xmlns:svg="http://www.w3.org/2000/svg"
   xmlns="http://www.w3.org/2000/svg"
   xmlns:sodipodi="http://sodipodi.sourceforge.net/DTD/sodipodi-0.dtd"
   xmlns:inkscape="http://www.inkscape.org/namespaces/inkscape"
   width="5.2849mm"
   height="5.2839mm"
   version="1.1"
   viewBox="0 0 5.2849 5.2839"
   id="svg18"
   sodipodi:docname="circulo.svg"
   inkscape:version="1.0.2 (e86c870879, 2021-01-15)">
  <metadata
     id="metadata24">
    <rdf:RDF>
      <cc:Work
         rdf:about="">
        <dc:format>image/svg+xml</dc:format>
        <dc:type
           rdf:resource="http://purl.org/dc/dcmitype/StillImage" />
      </cc:Work>
    </rdf:RDF>
  </metadata>
  <defs
     id="defs22" />
  <sodipodi:namedview
     pagecolor="#ffffff"
     bordercolor="#666666"
     borderopacity="1"
     objecttolerance="10"
     gridtolerance="10"
     guidetolerance="10"
     inkscape:pageopacity="0"
     inkscape:pageshadow="2"
     inkscape:window-width="1600"
     inkscape:window-height="839"
     id="namedview20"
     showgrid="false"
     inkscape:zoom="16"
     inkscape:cx="2.2345757"
     inkscape:cy="9.6937172"
     inkscape:window-x="0"
     inkscape:window-y="32"
     inkscape:window-maximized="1"
     inkscape:current-layer="svg18" />
  <g
     transform="translate(-71.461,-131.89)"
     id="g12">
    <path
       d="m 74.898,132.01 c -1.3853,-0.43729 -2.8766,0.3375 -3.3145,1.7227 -0.4379,1.3852 0.3377,2.8779 1.7227,3.3164 1.385,0.43851 2.8773,-0.33594 3.3164,-1.7207 l -1.0684,-0.33789 c -0.25604,0.80744 -1.1026,1.2459 -1.9102,0.99023 -0.80755,-0.25568 -1.2475,-1.10054 -0.99219,-1.90824 0.25533,-0.80767 1.1024,-1.2472 1.9102,-0.99219 0.80777,0.25497 1.2468,1.1023 0.99219,1.9102 l 1.0684,0.33985 c 0.43668,-1.3855 -0.33932,-2.88308 -1.7247,-3.32028 z"
       color="#000000"
       color-rendering="auto"
       dominant-baseline="auto"
       fill="#ff0000"
       image-rendering="auto"
       shape-rendering="auto"
       solid-color="#000000"
       stop-color="#000000"
       style="font-variant-ligatures:normal;font-variant-position:normal;font-variant-caps:normal;font-variant-numeric:normal;font-variant-alternates:normal;font-variant-east-asian:normal;font-feature-settings:normal;font-variation-settings:normal;text-indent:0;text-decoration:none;text-decoration-line:none;text-decoration-style:solid;text-decoration-color:#000000;text-transform:none;text-orientation:mixed;white-space:normal;shape-padding:0;shape-margin:0;inline-size:0;isolation:auto;mix-blend-mode:normal;paint-order:normal"
       id="path10"
       sodipodi:nodetypes="cscccccccccc" />
  </g>
  <path
     id="path33"
     style="opacity:0.75;fill:#666666;stroke-width:1.121;stroke-linecap:round;paint-order:markers stroke fill;stop-color:#000000"
     d="M 3.192859,2.8146129 A 0.57815886,0.57815886 0 0 1 2.4672274,3.1910435 0.57815886,0.57815886 0 0 1 2.0904776,2.4655775 0.57815886,0.57815886 0 0 1 2.8157779,2.0885087 0.57815886,0.57815886 0 0 1 3.1931656,2.813643" />
</svg>
