<?xml version="1.0" encoding="UTF-8"?>
<svg width="1100pt" height="800pt" version="1.2" viewBox="0 0 1100 800" xmlns="http://www.w3.org/2000/svg">
 <g>
  <rect width="1100" height="800" fill="#fff"/>
  <g>
   <path d="m517.02 668.12c-29.109 0.0859-58.219 0.76172-87.277 3.8945-10.957 1.1797-21.68 3.7734-32.66 4.8203-21.938 2.0938-43.477 5.9961-65.492 7.7969-17.723 1.4453-35.523 2.3008-53.199 4.1406-16.57 1.7227-34.914 1.3281-51.359-1.5234-12.172-2.1055-24.402-3.293-36.371-6.6797-13.387-3.7891-27.934-6.5-41.883-6.4024-19.895 0.14063-39.266 0.15625-58.301 6.8477-6.6836 2.3476-14.863 6.207-19.941 11.137-11.613 11.281-13.188 39.43-1.5859 51.133 19.535 19.691 61.23 27.418 88.617 27.785 30.004 0.39843 59.156-1.7578 89.207-3.0274 27.926-1.1797 55.781-2.8555 83.75-2.7969 57.129 0.12109 114.26 0 171.29-3.6953 53.574-3.4726 107.29-2.2812 160.98-2.2812 55.059 0 109.75 0.41797 164.41 7.5078 23.816 3.0859 48.082 4.168 72.02 6.332 21.438 1.9375 42.035-0.0391 63.387-1.832 17.93-1.5 35.742-5.9609 52.031-13.5 12.891-5.9688 35.879-24.508 39.828-38.754 11.09-39.934-156.21-38.973-181.9-38.883-28.738 0.10156-57.703 1.0156-86.414-0.0469-12.078-0.44531-23.98-2.7305-35.77-5.2344-11.738-2.5-23.57-1.8633-35.477-2.9141-49.656-4.3711-99.422-3.7305-149.23-3.7305-16.211 0-32.43-0.14063-48.648-0.0937" fill="#f0f0f0"/>
   <path d="m329.08 243.39 6.0703-4.0859 6.9414 3.0859 3.4609 6.4609-2.4453 4.9219-6.2148 2.7422 2.1524 0.83594-0.60547 1.7617-9.6328 3.168c-1.9531-2.543-9.1914-5.125-10.238-6.4883l6.7148-4.5938 3.7969-7.8086" fill="#a86654"/>
   <path d="m200.84 480.56-67.27-24.738 13.867 117.84-8.0352 101.67-0.21484 0.67578 0.16016 0.0156-0.0195 0.22266 13.273 1.2656v-0.0117l0.4961 0.0547 29.629-90.582 15.68-96.488 2.4336-9.9258" fill="#19304f"/>
   <path d="m151.91 682.15-13.762-0.34766-3.5156 11.613 0.34766 0.10156-0.0898 0.0117 22.754 13.48 10.816 1.2031 1.375-12.363-2.9219-2.1406-15.004-11.559" fill="#14283f"/>
   <path d="m246.66 482.59-20.188 201.77-13.316 0.60547-13.375-108.95-23.191-108.5 70.07 15.074" fill="#19304f"/>
   <path d="m226.44 689.04 17.637 10-1.6524 8.3203-31.512-4.75 1.8516-11.988 13.676-1.582" fill="#14283f"/>
   <path d="m278.2 533.26c4.2578-2.957 4.3476-8.1016 4.3398-13.258-0.0117-9.6758-1.7539-19.57-3.9726-28.977-4.2227-17.645-9.0117-38.895-11.117-61.758-5.4414-59.09-24.102-98.742-24.102-98.742l-6.0234-16.059c-1.1953-2.0859-2.4375-4.1523-3.7344-6.1875-7.5195-11.797-20.578-31.852-34.543-35.137-0.29296-0.0703-0.58593-0.13281-0.8789-0.19921-14.684-3.2227-33.496-1.7266-46.766 5.4102-2.5195 1.3555-4.7578 3.1602-6.9805 4.9531-6.4883 5.2305-11.781 8.0664-14.578 16.043-2.4297 6.9219-2.9922 14.48-4.332 21.656-2.7188 14.582-4.3438 29.336-6.5156 44-4.0703 27.5-7.5312 55.09-11.891 82.547-2.2422 14.133-4.5 28.289-5.5586 42.566-0.9375 12.625-12.328 25.445-18.727 36.762-2.2305 3.9375 29.758 14.141 32.625 14.809 13.27 3.0859 27.383 2.2969 41.062 2.3594 29.973 0.13672 59.953-0.78906 89.863-2.7695 9.9375-0.66015 22.188-2.5547 31.004-7.5078 0.29297-0.16016 0.56641-0.33203 0.82422-0.51172" fill="#e8ebee"/>
   <path d="m181.7 271.32s-16.887-4.5547-19.219 33.539c-2.332 38.102-6.2188 134.51-11.66 160.95-5.4453 26.434-13.605 78.285-13.605 78.285l51.703 1.7969 59.09-4.6641s-20.215-37.32-23.324-63.754c-3.1133-26.438 2.332-125.96-10.887-163.28s-15.992-42.199-32.098-42.871" fill="#38b8b8"/>
   <path d="m217.03 315.86 37.68 20.488 22.711-7.7773 58.109-63.887-15.438-13.957-61.672 48.211-48.547-21.18 7.1562 38.102" fill="#e8ebee"/>
   <path d="m205.25 241.14c2.5547 7.6719-1.1445 15.852-4.3906 22.844-2.8789 6.1992-3.8789 10.277 3.4297 11.949 4.1172 0.94532 11.422 2.7031 15.031-0.44922 2.7344-2.3867 1.1992-9.7617-0.13281-12.695-1.0156-2.2344-3.7031-3.3711-4.6602-5.6367-0.39453-0.92968-0.44922-1.9688-0.46484-2.9805-0.0547-4.1367 0.51562-8.2773 1.6914-12.242 0.79688-2.6953 1.8789-5.3398 2.1211-8.1406 0.34765-4.0547-2.5195-8.7812-4.0274-12.512-2.8047-6.9375-12.57-16.242-20.746-10.797-1.8594 1.2422-2.9453 3.3359-3.8516 5.3828-0.53907 1.2188-1.0547 2.4922-1.0703 3.8281-0.0625 5.3281 4.8008 6.2266 8.1562 8.7578 4.1445 3.1289 7.2812 7.7969 8.9141 12.691" fill="#19304f"/>
   <path d="m189.7 271.07c7.0898-1.6719 12.637-7.625 15.301-14.406 2.6641-6.7774 2.8008-14.301 2.0664-21.547-2.4531-24.117-32.457-22.57-42.617-4.0859-8.8516 16.113 4.6328 44.898 25.25 40.039" fill="#a86654"/>
   <path d="m189.7 268.48c-0.12109 2.7461-0.23828 5.4922-0.35547 8.2422-0.0195 0.40234-0.0508 0.84375-0.33203 1.1328-0.32031 0.32813-0.83984 0.33203-1.2969 0.31641-2.2383-0.0781-4.4766-0.15625-6.7188-0.23047-1.1055-0.0391-2.2617-0.0898-3.2383-0.61719-2.1445-1.1484-2.5859-4.0508-2.2422-6.457 0.33984-2.4062 1.2031-4.832 0.6914-7.207 4.625 2.2773 9.0156-2.8711 13.641-0.59375l-0.14844 5.4141" fill="#a86654"/>
   <path d="m180.02 193.31c-7.8789 2.6758-12.93 10.645-20.617 13.824-4.4102 1.8281-9.625 2.0586-13.223 5.1914-8.0625 7.0273-1.582 21.773-8.207 30.168-1.375 1.7461-3.2344 3.0664-4.6172 4.8047-2.9805 3.7578-3.3711 8.8828-3.6367 13.672-0.0625 1.0781-0.0703 2.25 0.11719 3.3359 1.0352 11.055 17.086 10.352 23.465 9.6445 6.9961-0.77735 4.6641-4.6641 4.6641-4.6641l-0.2539-0.3125c-0.67188-4.4883 1.1758-9.2774 4.7031-12.137 1.3086-1.0625 2.8555-1.9062 3.7774-3.3164 2.0742-3.1641 0.0937-7.3594 0.39843-11.129 1.2266-15.184 26.711-11.93 33.902-22.738 8.8203-13.258-5.5938-31.398-20.473-26.344" fill="#19304f"/>
   <path d="m781.37 278.21-8.8594-4.957-2.3008-8.6523-2.082-0.44531-0.64844 2.5391-3.9648-6.6367-5.9141-2.0938-6.8438 4.7773-2.543 8.2422 5.4688 6.293 9.375 3.2305 11.836 7.3086 6.4766-9.6055" fill="#e8bfa3"/>
   <path d="m782.21 272.58-13.285 15.73 49.191 47.727 13.262 4.2774 56.492-45.047-15.109-30.848-42.133 35.809-48.418-27.648" fill="#e8ebee"/>
   <path d="m975.03 691.14 1.9727 9.0508-15.633 12.887-10.773-7.1328 6.8281-10.969 15.633-12.883 1.9726 9.0469" fill="#19304f"/>
   <path d="m920.36 412.9 17.441 40.227 1.6445 113.17 35.867 121.73-16.676 7.3984-73.191-141.35-8.332-44.766-3.3086-94.289 46.555-2.1211" fill="#115463"/>
   <path d="m835.9 421.91-1.3711 118.61 22.352 152.92h17.184l10.855-141.1 23.516-141.11-72.535 10.68" fill="#115463"/>
   <path d="m873.97 691.39v9.293l-18.582 9.293-9.293-9.293 9.293-9.293h18.582" fill="#19304f"/>
   <path d="m869.75 261.32 45.648-1.6914s27.312 23.961 41.426 86.227c14.371 63.406-2.6562 154.68-2.6562 154.68s-122.47-16.324-142.55-18.844l30.637-125.18 27.5-95.188" fill="#e8ebee"/>
   <path d="m886.11 265.98c5.332-0.52344 10.664-1.043 15.992-1.5664 0.0586-4.2695-0.22657-8.5469-0.84766-12.77 4.4453-1.5586 9.582-3.8945 10.359-8.5391 0.2461-1.4609-4e-3 -2.957-0.2539-4.418-1.0352-6.043-2.0703-12.09-3.1094-18.133-0.35547-2.0898-0.73828-4.2422-1.8711-6.0352-1.9922-3.1445-5.8594-4.5234-9.5273-5.1641-9.3516-1.6367-19.551 0.375-26.816 6.4961-1.9336 1.625-3.6797 3.5859-4.5352 5.9609-1.3164 3.668-0.33984 7.7188 0.64453 11.488 0.91016 3.4805 1.8164 6.9609 2.7266 10.441 1.043 4.0039 2.5547 8.5547 6.4102 10.062 2.043 0.79687 4.4609 0.5664 6.3125 1.75 3.2656 2.082 2.8203 6.9414 4.5156 10.426" fill="#e8bfa3"/>
   <path d="m834.02 205.57c-0.10157-4.1445 0.48047-8.3359 1.3047-12.113 1.4258-6.4922 9.082-9.4102 15.715-9.8711 14.32-0.99218 28.141-7.4844 42.125-2.4766 7.9922 2.8672 18.727 3.5547 25.961 7.5898 3.0234 1.6875 5.4297 4.3203 7.3086 7.2266 6.5 10.07 6.5156 23.941 0.0391 34.031-1.4531 2.2617-3.1875 4.3281-5.0156 6.3047-3.7774 4.0859-8.2969 9.1328-13.488 10.641-0.11719-4.6406 4.1289-19.277 0.57031-23.086-5.6524-6.0469-18.449-3.957-25.473-2.4805-7.6602 1.6094-14.492 7.0234-22.086 8.1758-5.4609 0.82422-12.43-1.8633-17.07-4.6953-7.2734-4.4336-9.7031-11.758-9.8906-19.246" fill="#19304f"/>
   <path d="m882.34 266.96-47.988 191.96-3.9336 25.176 59.789 7.8672s-2.3594-91.926-1.5703-104.18c0.78516-12.258 9.6524-38.766 11.012-67.328 0.78906-16.52 6.0352-46.195 2.3633-55.855l-19.672 2.3594" fill="#c7d4a1"/>
  </g>
  <g fill="#d9a1a1">
   <path d="m489.66 479.79-4e-3 51.977c0.24219-1.0391 0.39844-2.125 0.39844-3.2656v-82.344h-0.39063l-4e-3 33.633"/>
   <path d="m489.68 409.89-4e-3 -50.922c-0.25 1.0547-0.41016 2.1562-0.41016 3.3125v81.5h0.39063v-33.891h0.0234"/>
   <path d="m474.38 594.04c-1.8828 0.19531-3.7773 0.77344-5.5859 1.8086-5.5742 3.1797-11.113 6.1953-16.754 8.1172 5.5547-1.8476 11.059-4.8359 16.828-7.9688 1.8477-1.0039 3.7031-1.6367 5.5117-1.957"/>
   <path d="m527.28 358.06c-5.6367-1.918-11.176-4.9336-16.75-8.1172-1.8086-1.0312-3.7031-1.6094-5.5859-1.8047 1.8086 0.31641 3.6641 0.95313 5.5117 1.957 5.7695 3.1289 11.27 6.1172 16.824 7.9648"/>
   <path d="m489.65 604.87-8e-3 107.57c0.13672-4e-3 0.27735-4e-3 0.41407-4e-3v-104.25c0-1.1562-0.16016-2.2578-0.40625-3.3125"/>
   <path d="m338.58 424.42c1.5469 2.4844 2.1992 5.1602 2.1445 7.7539 0.30078-2.9492-0.31641-6.0586-2.0977-8.9102-5.7344-9.2031-9.4023-19.418-9.3555-29.062-0.36328 9.9766 3.3438 20.648 9.3086 30.219"/>
   <path d="m404.09 396.79c-0.45703 9.2578-5.1055 18.059-10.18 26.949-1.3164 2.3047-1.8945 4.7422-1.8789 7.1172 0.16015-1.9961 0.73437-4.0117 1.832-5.9336 5.293-9.2656 10.125-18.438 10.227-28.133"/>
   <path d="m489.67 285.87-8e-3 -51.98-4e-3 -58.688c-0.12891 4e-3 -0.25782 4e-3 -0.39063 0.0117v107.39c0 1.1445 0.16016 2.2266 0.40234 3.2695"/>
  </g>
  <g>
   <path d="m474.38 594.04c-1.8086 0.32031-3.6641 0.95313-5.5117 1.957-5.7695 3.1328-11.273 6.1211-16.828 7.9688-8.3633 2.8477-16.949 3.2852-26.191-1.7383-18.82-10.23-25.789-35.551-14.934-53.996 13.387-22.75 37.723-19.945 57.406-7.6719 8.4961 5.2969 19.215 0.34375 21.332-8.7891l4e-3 -51.977 4e-3 -33.633h-4e-3v-2.375h-0.39063v1.9141h-86.777c-6.6602-1.7695-10.98-8.1797-10.457-14.844-0.0156-2.375 0.5625-4.8125 1.8789-7.1172 5.0742-8.8906 9.7227-17.691 10.18-26.949 0.0508-4.7852-1.0508-9.6953-3.8242-14.809-10.219-18.828-35.539-25.809-53.988-14.965-11.695 6.8711-16.629 16.641-17.012 27.184-0.0469 9.6445 3.6211 19.859 9.3555 29.062 1.7812 2.8516 2.3984 5.9609 2.0977 8.9102-0.12891 6.2109-4.3867 11.961-10.734 13.527h-75.457c-0.25 0.3789-0.51172 0.75-0.75 1.1445-6.5156 10.641-5.1719 18.555 4.5469 25.254 6.2266 4.293 12.797 7.9766 18.246 13.543 8.3242 8.4961 8.8594 13.508 2.5078 24.016-7.1523 11.828-7.1133 12.312 3.875 20.715 2.9492 2.2578 6.0703 3.9531 1.9297 8.2227-6.0977 6.2812-3.9141 12.41 1.3359 16.984 7.3672 6.4258 8.4726 14.664 7.0898 23.879-1.207 8.0391-2.9883 15.977-4.4922 23.965-4.0547 21.547 1.5938 31.551 21.066 37.211 20.32 5.9102 40.543 0.79297 60.809-1.1641 13.582-1.3125 26.957-6.0352 40.855-2.5977 9.0195 2.2344 14.004 7.75 15.164 17.855 1.6875 14.734 6.0742 28.816 8.582 43.312 2.043 11.824 7.1914 15.52 17.84 15.043 8.9258-0.40234 21.688-0.58984 36.504-0.64453l8e-3 -107.57c-1.6487-6.9922-8.3479-11.555-15.266-10.832" fill="#19304f"/>
   <path d="m563.13 243.03c4.1758 8.3906 15.754 10.719 22.789 3.5938 16.293-16.508 39.312-24.887 57.617-5.8672 14.844 15.422 13.941 41.668-1.9844 55.988-7.8242 7.0312-16.277 8.6016-25.078 7.7734-5.832-0.50781-11.875-2.1367-18.215-3.8438-2.0312-0.54687-3.9844-0.73437-5.8125-0.625-6.8984 0.90235-12.359 6.8945-12.336 14.082l11.828 49.527-0.0234 8e-3 7.8711 32.965 0.28515 1.1875 0.26953 1.1211 0.37891-0.0898 85.438-20.398c8.3594 0.9414 14.594 9.3008 12.016 18.109-4.4766 15.293-8.0195 30.152 3.7461 43.254 14.309 15.938 40.555 16.852 55.984 2.0156 19.031-18.289 10.664-41.316-5.8359-57.621-6.7305-6.6484-5.0078-17.355 2.2852-22.035l52.234-12.469c2.7422-19.27 2.4961-38.238-0.56641-55.98-9.0352-45.727-26.773-81.078-54.809-106.76-57.512-52.68-123.87-67.094-194.33-55.895-6.6172 1.0508-13.102 2.5078-19.457 4.3164l13.629 57.086 12.074 50.555" fill="#115463"/>
   <path d="m489.66 443.79h-4e-3v2.375h4e-3v-2.375" fill="#b3d4ca"/>
   <path d="m650.66 713.12c12.719-0.6914 6.5469-8.625 0.6836-20.949-47.566-99.984 9.0898-180.58 18.367-191.86 13.906-16.902 24.562-35.309 31.992-54.152h-53.699c-8.1836 2.8555-12.344 12.867-7.3398 20.902 12.262 19.691 15.051 44.027-7.7031 57.402-18.453 10.844-43.77 3.8633-53.988-14.961-8.4023-15.48-1.5078-29.105 6.4024-42.945 4.5508-7.9648 0.42968-17.543-7.4844-20.398h-87.84v82.344c0 1.1406-0.15625 2.2266-0.39844 3.2656v0.35156c-2.2266 9-12.852 13.84-21.281 8.5859-19.691-12.266-44.027-15.059-57.406 7.6953-10.844 18.453-2.8203 43.344 16.004 53.562 9.1016 4.9414 17.141 4.6328 25.07 2 5.6406-1.9219 11.18-4.9375 16.754-8.1172 1.8086-1.0352 3.7031-1.6133 5.5859-1.8086 7.2344-1.2773 13.641 2.7305 15.266 10.586v0.24609c0.24609 1.0547 0.40625 2.1562 0.40625 3.3125v104.25c57.32-0.20703 144.98 1.5352 160.61 0.6875" fill="#d1e6f5"/>
   <path d="m489.65 604.87v-0.24609c-1.625-7.8555-8.0312-11.863-15.266-10.586 6.918-0.72265 13.617 3.8398 15.266 10.832" fill="#19304f"/>
   <path d="m468.32 540.56c-19.684-12.273-44.02-15.078-57.406 7.6719-10.855 18.445-3.8867 43.766 14.934 53.996 9.2422 5.0234 17.828 4.5859 26.191 1.7383-7.9297 2.6328-15.969 2.9414-25.07-2-18.824-10.219-26.848-35.109-16.004-53.562 13.379-22.754 37.715-19.961 57.406-7.6953 8.4297 5.2539 19.055 0.41406 21.281-8.5859v-0.35156c-2.1172 9.1328-12.836 14.086-21.332 8.7891" fill="#19304f"/>
   <path d="m568.41 302.33c-13.387-22.75-37.727-19.945-57.406-7.6719-8.4961 5.3008-19.219 0.34766-21.332-8.7852-0.24218-1.043-0.40234-2.125-0.40234-3.2695v-107.39c-29.324 1.3203-57.855 10.156-85.234 23.578-7.3633 3.6094-14.602 7.5547-21.777 11.617-50.344 28.512-78.352 72.281-75.973 136.42 1.332 35.996-14.695 62.195-38.371 84.215-4.2812 3.9805-8.5352 7.9414-12.039 12.719-0.46094 0.6289-0.91016 1.2773-1.3438 1.9375h75.457c6.3477-1.5664 10.605-7.3164 10.734-13.527 0.0547-2.5938-0.59766-5.2695-2.1445-7.7539-5.9648-9.5703-9.6719-20.242-9.3125-30.219 0.38672-10.543 5.3203-20.312 17.016-27.184 18.449-10.844 43.77-3.8633 53.988 14.965 2.7734 5.1133 3.8711 10.023 3.8242 14.809-0.10156 9.6953-4.9336 18.867-10.227 28.133-1.1016 1.9219-1.6719 3.9375-1.832 5.9336-0.52344 6.6641 3.7969 13.074 10.457 14.844h86.777v-83.414c0-1.1562 0.16016-2.2578 0.41016-3.3125 1.6445-6.9961 8.3476-11.555 15.266-10.832 1.8828 0.19532 3.7774 0.77344 5.5859 1.8047 5.5742 3.1836 11.113 6.1992 16.75 8.1172 8.3672 2.8477 16.953 3.2891 26.195-1.7383 18.82-10.23 25.789-35.551 14.934-53.996" fill="#b3d4ca"/>
   <path d="m922.59 296.17-58.41 55.152-86.648-25.832-6.1992 19.492 95.23 43.57h25.062l52.957-45.051-21.992-47.332" fill="#e8ebee"/>
   <path d="m771.89 343.23-15.086 0.27735-9.207-12.996 23.41-13.016 6.5234 8-5.6406 17.734" fill="#e8bfa3"/>
   <path d="m287.17 376.22-0.28515 8.7891 15.516 5.6484 8.9414-6.7734 8e-3 -10.234-8.6328-0.48438-0.26953-2.25-2.8281-1.8164-12.449 7.1211" fill="#a86654"/>
   <path d="m157.68 310.46 63.98 54.48 67.961 1.3242s-2.7578 29.195-2.7344 26.77c0.0273-2.4258-75.262 7.2812-75.262 7.2812l-66.793-47.211 12.848-42.645" fill="#e8ebee"/>
  </g>
 </g>
</svg>
