<?xml version="1.0" encoding="UTF-8"?>
<svg width="435.58pt" height="426.44pt" version="1.2" viewBox="0 0 435.58 426.44" xmlns="http://www.w3.org/2000/svg">
 <path d="m137.81 401.3c-13.059-1.9492-25.871-4.8203-38.137-8.8047-43.16-14.016-88.41-45.648-97.352-93.129-1.1914-6.3125-1.75-12.742-1.7305-19.168 0.07812-26.633 12.059-52.809 31.285-71.121 19.23-18.312 45.312-28.797 71.687-30.121 7.6484-0.38671 15.297-0.0352 22.949 0.31641 7.0312 0.32031 14.062 0.64063 21.09 0.39453 31.082-1.0938 48.508-16.543 59.738-44.887 16.07-40.563 42.895-65.441 86.723-71.109 39.258-5.0742 83.188 5.9102 111.97 34.66 35.164 35.129 34.793 88.266 20.297 133.13-0.16016 0.48047-0.31641 0.96484-0.47266 1.4453-3.4102 10.297-7.5508 20.355-12.309 30.094-6.9453 14.215-15.277 27.805-25.125 40.172-27.875 35.004-64.516 63.805-105.17 82.109-46.148 20.777-95.805 23.43-145.44 16.016" fill="#a6d9ee"/>
 <path d="m324.82 320.51c-1.3008-13.641-4.2344-28.012-8.4648-41.047-0.0859-0.26172-0.36719-0.40625-0.62891-0.32031-0.26172 0.0859-0.40625 0.36719-0.32031 0.6289 4.207 12.961 7.1289 27.27 8.4219 40.832 0.0234 0.27343 0.26953 0.47656 0.54296 0.45312 0.27344-0.0273 0.47657-0.27344 0.44922-0.54687" fill="#f57d1e"/>
 <g fill="#c52828">
  <path d="m94.634 284.78c6.3477-8.3555 12.285-17.02 17.785-25.957 0.14453-0.23437 0.0703-0.54297-0.16407-0.6875s-0.54297-0.0703-0.6875 0.16406c-5.4805 8.9062-11.402 17.547-17.73 25.875-0.16796 0.21875-0.125 0.53125 0.0937 0.69922 0.22266 0.16797 0.53516 0.125 0.70313-0.0937"/>
  <path d="m105.09 323.52c5.7852-5 10.844-10.844 14.961-17.293 0.14844-0.23047 0.0781-0.53906-0.15235-0.69141-0.23437-0.14843-0.54296-0.0781-0.6914 0.15235-4.0664 6.3672-9.0586 12.141-14.77 17.078-0.21094 0.17969-0.23438 0.4961-0.0547 0.70313 0.18359 0.21093 0.5 0.23437 0.70703 0.0508"/>
  <path d="m104.19 271.05c-0.19532-2.2852-0.29688-4.582-0.29688-6.8789 0-2.3867 0.10938-4.7734 0.32031-7.1524 0.0234-0.27734-0.17968-0.51953-0.45312-0.54296-0.27344-0.0234-0.51953 0.17968-0.54297 0.45312-0.21484 2.4102-0.32422 4.8242-0.32422 7.2422 0 2.3242 0.10156 4.6484 0.30078 6.9648 0.0234 0.27735 0.26563 0.48047 0.53907 0.45703 0.27734-0.0234 0.48046-0.26562 0.45703-0.54297"/>
  <path d="m100.27 276.97c3.4023 0.0234 6.8086 0.0508 10.215 0.0781 0.27735 4e-3 0.50391-0.21875 0.50391-0.49609 4e-3 -0.27734-0.21875-0.5-0.4961-0.50391-3.4062-0.0273-6.8125-0.0547-10.215-0.0781-0.27734-4e-3 -0.50391 0.21875-0.50391 0.49609-4e-3 0.27344 0.21875 0.5 0.4961 0.50391"/>
  <path d="m112.24 316.03c0.21094-4.168 0.42578-8.332 0.63672-12.5 0.0117-0.27343-0.19922-0.50781-0.47266-0.52343-0.27734-0.0156-0.51171 0.19921-0.52734 0.47265-0.21094 4.168-0.42187 8.332-0.63672 12.5-0.0156 0.27344 0.19922 0.50781 0.47266 0.52344 0.27734 0.0156 0.51172-0.19922 0.52734-0.47266"/>
 </g>
 <g>
  <path d="m145.09 357.35c0.88672 3.2578 1.3242 6.6875 1.1953 10.129l-8.418-0.33204c0.0898-2.5312-0.23046-5.0938-0.91015-7.5938l8.1328-2.2031" fill="#d4f0fa"/>
  <path d="m145.09 357.35c0.17578 0.60937 0.33203 1.2266 0.44922 1.8555l-8.2383 1.7617c-0.0859-0.47657-0.20703-0.94532-0.34375-1.4141l8.1328-2.2031" fill="#4a9ccc"/>
  <path d="m141.25 348.12c1.6328 2.875 2.957 5.9688 3.8398 9.2305l-8.1328 2.2031c-0.67969-2.5039-1.7148-4.9453-3.0274-7.2617l7.3203-4.1719" fill="#d4f0fa"/>
  <path d="m141.25 348.12 0.89062 1.6406-7.4961 3.8476-0.71485-1.3164 7.3203-4.1719" fill="#4a9ccc"/>
  <path d="m135.47 340.15c2.1836 2.4336 4.1445 5.0859 5.7774 7.9688l-7.3203 4.1719c-1.3086-2.3203-2.9219-4.5-4.7266-6.5117l6.2695-5.6289" fill="#d4f0fa"/>
  <path d="m135.47 340.15c0.42578 0.44531 0.8086 0.92969 1.2031 1.3984l-6.4805 5.3828c-0.32813-0.38672-0.64063-0.78516-0.99219-1.1523l6.2695-5.6289" fill="#4a9ccc"/>
  <path d="m128.3 333.57c2.5469 1.9414 4.9922 4.1445 7.1719 6.5781l-6.2695 5.6289c-1.8086-2.0156-3.8125-3.8281-6.0156-5.5078l5.1133-6.6992" fill="#d4f0fa"/>
  <path d="m128.3 333.57c0.47656 0.375 0.96484 0.73046 1.4297 1.1211l-5.3203 6.5352c-0.39453-0.33204-0.8164-0.63672-1.2226-0.95704l5.1133-6.6992" fill="#4a9ccc"/>
  <path d="m120.31 328.35c2.7578 1.5352 5.4414 3.2695 7.9922 5.2188l-5.1133 6.6992c-2.1914-1.6758-4.5352-3.1992-6.9961-4.5703l4.1172-7.3476" fill="#d4f0fa"/>
  <path d="m120.31 328.35 1.543 0.89062-4.2891 7.25-1.3711-0.79297 4.1172-7.3476" fill="#4a9ccc"/>
  <path d="m111.9 324.21c2.8398 1.2383 5.6602 2.5977 8.4141 4.1406l-4.1172 7.3476c-2.4609-1.3711-5.0234-2.6133-7.6602-3.7617l3.3633-7.7266" fill="#d4f0fa"/>
  <path d="m111.9 324.21 1.5976 0.71094-3.4844 7.6719-1.4766-0.65625 3.3633-7.7266" fill="#4a9ccc"/>
  <path d="m103.32 320.82c2.8633 1.0391 5.7305 2.1524 8.5742 3.3867l-3.3633 7.7266c-2.6328-1.1445-5.3359-2.1953-8.0859-3.1953l2.875-7.918" fill="#d4f0fa"/>
  <path d="m103.32 320.82 1.6133 0.58985-2.9414 7.8984-1.5469-0.57031 2.875-7.918" fill="#4a9ccc"/>
  <path d="m209.24 265.27c-0.73438 1.3672-1.5234 2.7031-2.2812 4.0586l-2.3867 3.9922-7.1719-4.4219 2.2734-3.8047c0.72266-1.2891 1.4727-2.5586 2.1719-3.8594l7.3945 4.0352" fill="#d4f0fa"/>
  <path d="m209.24 265.27c-0.26953 0.51563-0.5586 1.0234-0.84766 1.5312l-7.3555-4.1133c0.27735-0.48047 0.55078-0.96093 0.8086-1.4531l7.3945 4.0352" fill="#4a9ccc"/>
  <path d="m213.47 256.96c-1.3242 2.8125-2.75 5.5742-4.2305 8.3047l-7.3945-4.0352c1.4023-2.5938 2.7578-5.2148 4.0117-7.8828l7.6133 3.6133" fill="#d4f0fa"/>
  <path d="m213.47 256.96-0.75391 1.582-7.5703-3.6953 0.71094-1.5 7.6133 3.6133" fill="#4a9ccc"/>
  <path d="m217.22 248.41c-0.57032 1.4531-1.1797 2.8828-1.8125 4.3047-0.60938 1.4336-1.2734 2.8398-1.9375 4.2461l-7.6133-3.6133c0.6289-1.332 1.2617-2.6602 1.8359-4.0195 0.59766-1.3438 1.1758-2.6953 1.7109-4.0625l7.8164 3.1445" fill="#d4f0fa"/>
  <path d="m217.22 248.41-0.66016 1.6289-7.7773-3.2383 0.62109-1.5352 7.8164 3.1445" fill="#4a9ccc"/>
  <path d="m220.44 239.63c-0.5 1.4805-0.98438 2.9648-1.543 4.418-0.53125 1.4648-1.0781 2.9258-1.6758 4.3633l-7.8164-3.1445c0.5625-1.3594 1.0781-2.7344 1.582-4.1172 0.52735-1.3711 0.97656-2.7656 1.4453-4.1562l8.0078 2.6367" fill="#d4f0fa"/>
  <path d="m220.44 239.63-0.5625 1.668-7.9688-2.7383 0.52343-1.5664 8.0078 2.6367" fill="#4a9ccc"/>
  <path d="m223.07 230.64c-0.78515 3.0274-1.6445 6.0312-2.6289 8.9961l-8.0078-2.6367c0.92969-2.7852 1.7344-5.6016 2.4727-8.4336l8.1641 2.0742" fill="#d4f0fa"/>
  <path d="m223.07 230.64-0.45312 1.7031-8.1367-2.1836 0.42578-1.5938 8.1641 2.0742" fill="#4a9ccc"/>
  <path d="m225.05 221.45-0.90235 4.6133c-0.36328 1.5234-0.6914 3.0547-1.082 4.5703l-8.1641-2.0742c0.36328-1.418 0.66797-2.8476 1.0078-4.2734l0.84375-4.3008 8.2969 1.4648" fill="#d4f0fa"/>
  <path d="m225.05 221.45c-0.0977 0.58203-0.22266 1.1562-0.33203 1.7344l-8.2774-1.582c0.10547-0.53906 0.22266-1.0742 0.3125-1.6172l8.2969 1.4648" fill="#4a9ccc"/>
  <path d="m226.31 212.12c-0.29297 3.1289-0.73828 6.2383-1.2617 9.3281l-8.2969-1.4648c0.48438-2.8789 0.90235-5.7656 1.1719-8.668l8.3867 0.80468" fill="#d4f0fa"/>
  <path d="m226.31 212.12c-0.0508 0.58985-0.0977 1.1758-0.17969 1.7617l-8.375-0.93359c0.0781-0.54297 0.12109-1.0859 0.16797-1.6328l8.3867 0.80468" fill="#4a9ccc"/>
  <path d="m226.81 202.7c-0.0117 3.1523-0.20703 6.3047-0.49609 9.4297l-8.3867-0.80468c0.26562-2.9024 0.44922-5.8008 0.45703-8.707l8.4258 0.082" fill="#d4f0fa"/>
  <path d="m226.81 202.7-0.0117 1.7773-8.4219-0.22266 8e-3 -1.6367 8.4258 0.082" fill="#4a9ccc"/>
  <path d="m226.49 193.25 0.17578 2.3594 0.0899 2.3633 0.0742 2.3594-0.0156 2.3633-8.4258-0.082 0.0156-2.1758-0.0703-2.1797-0.0781-2.1758-0.16407-2.1719 8.3984-0.66016" fill="#d4f0fa"/>
  <path d="m226.49 193.25 0.13281 1.7734-8.4102 0.51953-0.1211-1.6328 8.3984-0.66016" fill="#4a9ccc"/>
  <path d="m225.33 183.86c0.51953 3.1133 0.93359 6.2422 1.1602 9.3867l-8.3984 0.66016c-0.20703-2.8945-0.58984-5.7734-1.0664-8.6289l8.3047-1.418" fill="#d4f0fa"/>
  <path d="m225.33 183.86 0.28125 1.7539-8.332 1.2773-0.2539-1.6133 8.3047-1.418" fill="#4a9ccc"/>
  <path d="m223.31 174.61c0.3711 1.5352 0.79297 3.0586 1.1172 4.6055 0.29688 1.5508 0.67578 3.0898 0.90235 4.6523l-8.3047 1.418c-0.20703-1.4375-0.5586-2.8438-0.82813-4.2656-0.29297-1.418-0.6875-2.8125-1.0195-4.2227l8.1328-2.1875" fill="#d4f0fa"/>
  <path d="m298.95 331.09c-2.0781 1.7617-3.8906 3.7891-5.6641 5.832l-6.5117-5.3476c2.0625-2.3945 4.1914-4.75 6.5938-6.7969l5.582 6.3125" fill="#d4f0fa"/>
  <path d="m298.95 331.09-1.1406 1.0234-5.7656-6.1484 1.3242-1.1875 5.582 6.3125" fill="#4a9ccc"/>
  <path d="m305.46 326.17c-1.1641 0.71094-2.2461 1.543-3.3594 2.3242-1.0469 0.86718-2.1602 1.6562-3.1445 2.5976l-5.582-6.3125c1.1484-1.0859 2.4297-2.0078 3.6484-3.0078 1.2852-0.90625 2.543-1.8633 3.8789-2.6875l4.5586 7.0859" fill="#d4f0fa"/>
  <path d="m305.46 326.17c-0.44141 0.26562-0.8711 0.54297-1.2812 0.84765l-4.7539-6.957c0.47656-0.34765 0.97266-0.67187 1.4766-0.97656l4.5586 7.0859" fill="#4a9ccc"/>
  <path d="m312.64 322.27c-1.2227 0.59766-2.4805 1.1367-3.6562 1.8242-0.59766 0.33594-1.207 0.64063-1.7891 0.9961l-1.7344 1.082-4.5586-7.0859 2.0039-1.25c0.67188-0.40625 1.375-0.76562 2.0586-1.1484 1.3633-0.78906 2.8047-1.418 4.2227-2.1055l3.4531 7.6875" fill="#d4f0fa"/>
  <path d="m312.64 322.27-1.3867 0.66016-3.668-7.5859 1.6016-0.76172 3.4531 7.6875" fill="#4a9ccc"/>
  <path d="m320.33 319.49c-2.6328 0.69922-5.1836 1.6914-7.6875 2.7773l-3.4531-7.6875c2.8828-1.2539 5.8203-2.3867 8.8633-3.2031l2.2774 8.1133" fill="#d4f0fa"/>
  <path d="m320.33 319.49-1.4766 0.41406-2.5078-8.043 1.707-0.48437 2.2774 8.1133" fill="#4a9ccc"/>
  <path d="m328.33 317.87c-2.6953 0.36328-5.3828 0.84765-8 1.6211l-2.2774-8.1133c3.0195-0.88672 6.1289-1.457 9.25-1.8711l1.0274 8.3633" fill="#d4f0fa"/>
  <path d="m328.33 317.87c-0.51172 0.0351-1.0117 0.14453-1.5195 0.21875l-1.2656-8.332c0.58594-0.0859 1.168-0.20313 1.7578-0.25l1.0274 8.3633" fill="#4a9ccc"/>
  <path d="m336.45 317.53-2.0312-0.043c-0.67578-0.0156-1.3555 0.0469-2.0312 0.0625-1.3594 0.0156-2.707 0.19531-4.0586 0.32422l-1.0274-8.3633c1.5703-0.15235 3.1406-0.35157 4.7188-0.37891 0.78906-0.0234 1.5781-0.0859 2.3711-0.0703l2.3711 0.0469-0.3125 8.4219" fill="#d4f0fa"/>
  <path d="m30.427 407.81 16.391 7.9688c5.4883 2.668 11.492 4.1172 17.594 4.2461l300.25 6.4102c8.7344 0.18359 17.312-2.3359 24.559-7.2227l7.7031-5.1953-366.5-6.207" fill="#14233a"/>
  <path d="m393.82 415-360.27-6.3633c-5.2617-0.0937-5.75-4.1797-1.2891-8.9102l58.168-61.641c1.9375-2.0508 6.1055-3.5938 9.3633-3.5039l227.22 6.3672c3.0508 0.0859 7.082 1.8008 9.0547 3.8945l58.242 61.719c4.3906 4.6523 4.2617 8.5234-0.49219 8.4375" fill="#4a9ccc"/>
  <path d="m121.39 347.51-16.469-0.42969c-0.54688-0.0117-0.76172-0.32813-0.47657-0.69531l2.5469-3.3477c0.26562-0.35156 0.91015-0.625 1.4414-0.60938l15.906 0.42188c0.52735 0.0156 0.77735 0.30859 0.55469 0.66016l-2.0976 3.3516c-0.23047 0.37109-0.86329 0.66015-1.4062 0.64844" fill="#175175"/>
  <path d="m121.69 347.03-16.41-0.42578c-0.54688-0.0156-0.75782-0.32813-0.48047-0.69532l2.5312-3.3242c0.26562-0.34765 0.90625-0.61718 1.4336-0.60546l15.855 0.42187c0.52344 0.0156 0.77344 0.30859 0.55469 0.65625l-2.082 3.3281c-0.23047 0.36718-0.85938 0.65625-1.4024 0.64453" fill="#2875a1"/>
  <path d="m107.66 369.18-19.07-0.4375c-0.63672-0.0156-0.84375-0.42969-0.46485-0.92578l3.3867-4.4492c0.35547-0.46484 1.1328-0.82812 1.7461-0.8125l18.324 0.43359c0.60547 0.0117 0.86328 0.40235 0.57422 0.86719l-2.7891 4.4492c-0.3086 0.49609-1.0742 0.88672-1.707 0.875" fill="#175175"/>
  <path d="m108.06 368.54-18.992-0.4375c-0.63281-0.0156-0.83984-0.42579-0.46875-0.91797l3.3633-4.4141c0.35156-0.46093 1.125-0.82421 1.7344-0.80859l18.254 0.43359c0.60547 0.0156 0.86328 0.39844 0.57422 0.86329l-2.7656 4.4141c-0.3086 0.49219-1.0703 0.8789-1.6992 0.86719" fill="#2875a1"/>
  <path d="m132.26 369.74-18.945-0.43359c-0.62891-0.0156-0.89453-0.4336-0.59766-0.92578l2.6953-4.4492c0.28125-0.46875 1-0.83203 1.6055-0.81641l18.207 0.43359c0.60157 0.0117 0.91407 0.39844 0.69141 0.86329l-2.0977 4.4531c-0.23437 0.49609-0.93359 0.88672-1.5586 0.875" fill="#175175"/>
  <path d="m132.56 369.1-18.867-0.43359c-0.625-0.0117-0.89453-0.42579-0.59766-0.91797l2.6719-4.4141c0.28125-0.46093 0.99609-0.82031 1.5976-0.80859l18.137 0.43359c0.60157 0.0156 0.91407 0.39844 0.69532 0.85938l-2.0859 4.418c-0.23047 0.49219-0.92578 0.8789-1.5508 0.86328" fill="#2875a1"/>
  <path d="m156.69 370.3-18.816-0.43359c-0.625-0.0117-0.95313-0.42969-0.73047-0.92187l2.0078-4.4531c0.21094-0.46484 0.86719-0.82812 1.4688-0.8125l18.09 0.42578c0.59766 0.0156 0.96485 0.40235 0.81641 0.86719l-1.4219 4.4531c-0.16016 0.4961-0.79297 0.88672-1.4141 0.875" fill="#175175"/>
  <path d="m156.9 369.66-18.738-0.43359c-0.625-0.0117-0.94922-0.42579-0.73047-0.91797l1.9922-4.4141c0.20703-0.46093 0.86328-0.82421 1.4609-0.80859l18.02 0.42969c0.59766 0.0117 0.96484 0.39844 0.81641 0.85937l-1.4141 4.4141c-0.15625 0.49609-0.78515 0.88281-1.4062 0.87109" fill="#2875a1"/>
  <path d="m180.96 370.86-18.688-0.42969c-0.6211-0.0117-1.0078-0.42968-0.85938-0.92578l1.332-4.4492c0.13672-0.46875 0.73829-0.83203 1.332-0.8164l17.973 0.42578c0.59375 0.0156 1.0156 0.40234 0.9375 0.86719l-0.7539 4.4531c-0.0859 0.4961-0.65625 0.88672-1.2734 0.875" fill="#175175"/>
  <path d="m181.07 370.21-18.613-0.42969c-0.6211-0.0117-1.0039-0.42578-0.85547-0.91797l1.3203-4.418c0.13672-0.46094 0.73047-0.82422 1.3281-0.80859l17.902 0.42578c0.59375 0.0156 1.0117 0.39844 0.93359 0.86328l-0.75 4.418c-0.082 0.49219-0.64843 0.87891-1.2656 0.86719" fill="#2875a1"/>
  <path d="m205.06 371.41-18.562-0.42578c-0.61719-0.0156-1.0586-0.42969-0.98438-0.92578l0.66016-4.4531c0.0703-0.46485 0.60937-0.82813 1.2031-0.8125l17.855 0.42187c0.58985 0.0156 1.0625 0.40234 1.0547 0.86719l-0.0937 4.4531c-0.0117 0.4961-0.51953 0.88672-1.1328 0.875" fill="#175175"/>
  <path d="m205.08 370.77-18.492-0.42578c-0.61328-0.0156-1.0547-0.42578-0.98047-0.91797l0.65625-4.418c0.0703-0.46484 0.60547-0.82422 1.1953-0.80859l17.789 0.42187c0.58984 0.0156 1.0586 0.39844 1.0508 0.86328l-0.0937 4.418c-8e-3 0.49219-0.51563 0.87891-1.125 0.86719" fill="#2875a1"/>
  <path d="m229.01 371.95-18.438-0.42188c-0.61328-0.0156-1.1133-0.42968-1.1133-0.92578l4e-3 -4.4531c0-0.46485 0.48047-0.82813 1.0703-0.81641l17.742 0.42188c0.58594 0.0156 1.1094 0.40234 1.168 0.86718l0.5586 4.4531c0.0625 0.49609-0.38282 0.89062-0.99219 0.875" fill="#175175"/>
  <path d="m228.93 371.31-18.363-0.42187c-0.61328-0.0156-1.1094-0.42578-1.1094-0.91797l4e-3 -4.418c0-0.46484 0.48047-0.82422 1.0664-0.8125l17.676 0.42188c0.58203 0.0156 1.1055 0.39843 1.1641 0.85937l0.55469 4.4219c0.0586 0.49218-0.38281 0.8789-0.99219 0.86718" fill="#2875a1"/>
  <path d="m252.79 372.5-18.316-0.41797c-0.60938-0.0156-1.1602-0.42969-1.2344-0.92578l-0.64843-4.4531c-0.0664-0.46484 0.35547-0.83203 0.9414-0.8164l17.625 0.41796c0.58594 0.0156 1.1602 0.40235 1.2852 0.86719l1.2031 4.4531c0.13282 0.49609-0.25 0.89062-0.85546 0.875" fill="#175175"/>
  <path d="m252.63 371.86-18.246-0.41797c-0.60547-0.0156-1.1562-0.42578-1.2305-0.91797l-0.64062-4.418c-0.0664-0.46485 0.35156-0.82422 0.9375-0.8125l17.559 0.41796c0.58203 0.0156 1.1562 0.39844 1.2812 0.86329l1.1914 4.418c0.13281 0.49219-0.24609 0.88282-0.85156 0.86719" fill="#2875a1"/>
  <path d="m276.42 373.04-18.191-0.41797c-0.60547-0.0156-1.2148-0.42969-1.3594-0.92578l-1.2891-4.4531c-0.13281-0.46484 0.23047-0.83203 0.8125-0.81641l17.516 0.41407c0.57812 0.0156 1.2031 0.40234 1.3945 0.86718l1.8398 4.457c0.20313 0.49609-0.11719 0.88671-0.72265 0.875" fill="#175175"/>
  <path d="m276.16 372.39-18.125-0.41406c-0.60156-0.0156-1.207-0.42578-1.3476-0.91797l-1.2812-4.4219c-0.13282-0.46094 0.22656-0.82422 0.80859-0.8086l17.449 0.41407c0.57812 0.0156 1.1992 0.39843 1.3906 0.86328l1.8242 4.418c0.20313 0.49218-0.12109 0.88281-0.71875 0.86718" fill="#2875a1"/>
  <path d="m299.89 373.57-18.074-0.41406c-0.60156-0.0117-1.2656-0.42969-1.4766-0.92188l-1.9258-4.457c-0.19922-0.46484 0.10937-0.83203 0.6875-0.8164l17.402 0.41015c0.57813 0.0156 1.25 0.40235 1.5078 0.8711l2.4648 4.4531c0.27344 0.4961 0.0117 0.88672-0.58594 0.875" fill="#175175"/>
  <path d="m299.54 372.93-18.004-0.41407c-0.59765-0.0117-1.2578-0.42578-1.4688-0.91796l-1.9102-4.4219c-0.19922-0.46094 0.10937-0.82422 0.68359-0.80859l17.34 0.41406c0.57422 0.0117 1.2461 0.39453 1.5 0.85937l2.4453 4.4219c0.27343 0.49219 0.0117 0.87891-0.58594 0.86719" fill="#2875a1"/>
  <path d="m323.21 374.11-17.957-0.41015c-0.59766-0.0117-1.3125-0.42579-1.5938-0.92188l-2.5508-4.457c-0.26563-0.46484-0.0156-0.82813 0.5625-0.81641l17.293 0.41016c0.57032 0.0156 1.2969 0.40234 1.6172 0.86719l3.082 4.457c0.34375 0.49219 0.14063 0.88672-0.45312 0.87109" fill="#175175"/>
  <path d="m322.77 373.46-17.887-0.41016c-0.59375-0.0117-1.3047-0.42578-1.5859-0.91406l-2.5312-4.4219c-0.26172-0.46484-0.0117-0.82422 0.5625-0.8125l17.227 0.41016c0.57031 0.0117 1.293 0.39844 1.6133 0.85937l3.0586 4.4219c0.33985 0.49219 0.13672 0.88281-0.45703 0.86719" fill="#2875a1"/>
  <path d="m346.37 374.64-17.836-0.40625c-0.59375-0.0156-1.3633-0.42969-1.7148-0.92578l-3.1641-4.4531c-0.33203-0.46875-0.13281-0.83204 0.4375-0.82032l17.184 0.41016c0.56641 0.0117 1.3398 0.39844 1.7266 0.86719l3.6914 4.4531c0.41407 0.4961 0.26563 0.88672-0.32422 0.875" fill="#175175"/>
  <path d="m345.84 374-17.77-0.40625c-0.58984-0.0156-1.3555-0.42578-1.7031-0.91797l-3.1406-4.4219c-0.32813-0.46484-0.13281-0.82422 0.4375-0.8125l17.121 0.41016c0.56641 0.0117 1.3359 0.39453 1.7188 0.85937l3.6641 4.4219c0.40625 0.49219 0.26171 0.87891-0.32813 0.86719" fill="#2875a1"/>
  <path d="m109.84 361.17-15.266-0.36328c-0.60547-0.0156-0.81641-0.39453-0.47656-0.83985l3.0703-4.0273c0.32031-0.42188 1.0469-0.75 1.6289-0.73828l14.699 0.36719c0.57813 0.0117 0.82813 0.36328 0.55469 0.78515l-2.6016 4.0312c-0.28906 0.44531-1.0078 0.80078-1.6094 0.78516" fill="#175175"/>
  <path d="m110.22 360.59-15.211-0.36718c-0.59765-0.0117-0.80859-0.38672-0.47265-0.83204l3.043-3.9961c0.32031-0.41797 1.0469-0.74609 1.625-0.73047l14.645 0.36328c0.57422 0.0117 0.82422 0.36328 0.55468 0.78125l-2.582 4c-0.28515 0.44532-1.0039 0.79688-1.6016 0.78125" fill="#2875a1"/>
  <path d="m130.71 361.67-15.18-0.36328c-0.59766-0.0156-0.85547-0.39063-0.57813-0.83594l2.5039-4.0312c0.26172-0.42188 0.9414-0.75 1.5195-0.73828l14.617 0.36328c0.57422 0.0156 0.86718 0.36719 0.65625 0.78906l-2.0469 4.0312c-0.22656 0.44531-0.89453 0.80078-1.4922 0.78516" fill="#175175"/>
  <path d="m131.01 361.09-15.121-0.36328c-0.59375-0.0156-0.85547-0.38672-0.57813-0.83203l2.4883-4c0.25781-0.41797 0.9375-0.74609 1.5117-0.73047l14.562 0.35938c0.57422 0.0156 0.86719 0.36718 0.65234 0.78515l-2.0273 4c-0.22656 0.44532-0.89062 0.79688-1.4883 0.78125" fill="#2875a1"/>
  <path d="m151.47 362.17-15.094-0.36328c-0.59375-0.0156-0.90235-0.39063-0.6836-0.83985l1.9492-4.0312c0.20313-0.42187 0.83594-0.75 1.4102-0.73437l14.535 0.35937c0.57422 0.0156 0.91016 0.36719 0.75391 0.78907l-1.4961 4.0312c-0.16797 0.44921-0.78125 0.80468-1.375 0.78906" fill="#175175"/>
  <path d="m151.69 361.59-15.035-0.36328c-0.59375-0.0156-0.89844-0.38672-0.68359-0.83203l1.9375-4.0039c0.20312-0.41796 0.82812-0.74609 1.3984-0.73046l14.484 0.35937c0.57031 0.0156 0.90625 0.36328 0.75 0.78516l-1.4844 4c-0.16406 0.44531-0.77734 0.79687-1.3672 0.78515" fill="#2875a1"/>
  <path d="m172.11 362.66-15.004-0.35938c-0.59375-0.0117-0.94531-0.39062-0.78906-0.83594l1.3984-4.0352c0.14844-0.42188 0.73047-0.75 1.3008-0.73828l14.457 0.35937c0.5664 0.0156 0.94922 0.36328 0.84765 0.78906l-0.94922 4.0352c-0.10546 0.44922-0.67187 0.80078-1.2617 0.78516" fill="#175175"/>
  <path d="m172.25 362.09-14.949-0.35937c-0.58984-0.0156-0.9414-0.38672-0.78906-0.83204l1.3945-4.0039c0.14453-0.42188 0.72266-0.7461 1.293-0.73438l14.402 0.35938c0.56641 0.0156 0.94532 0.36328 0.84766 0.78515l-0.94531 4.0039c-0.10157 0.44531-0.66407 0.79688-1.2539 0.78125" fill="#2875a1"/>
  <path d="m192.63 363.16-14.918-0.35938c-0.58985-0.0156-0.99219-0.39062-0.89453-0.83984l0.85937-4.0352c0.0898-0.42187 0.625-0.75 1.1914-0.73828l14.379 0.35547c0.5625 0.0156 0.98829 0.36719 0.94532 0.78906l-0.41407 4.0391c-0.0469 0.44922-0.5625 0.80078-1.1484 0.78906" fill="#175175"/>
  <path d="m192.69 362.58-14.867-0.35547c-0.58594-0.0156-0.98438-0.39063-0.88672-0.83594l0.85156-4.0039c0.0898-0.42188 0.62109-0.7461 1.1836-0.73438l14.328 0.35547c0.5625 0.0156 0.98437 0.36328 0.9414 0.78516l-0.41015 4.0078c-0.0469 0.44531-0.5586 0.79687-1.1406 0.78125" fill="#2875a1"/>
  <path d="m213.03 363.65-14.836-0.35937c-0.58594-0.0117-1.0312-0.38672-0.99609-0.83594l0.32421-4.0391c0.0352-0.42188 0.51954-0.75 1.082-0.73829l14.301 0.35547c0.5625 0.0117 1.0273 0.36719 1.0391 0.78907l0.11719 4.0391c0.0117 0.44922-0.44922 0.80078-1.0312 0.78906" fill="#175175"/>
  <path d="m213.02 363.07-14.777-0.35547c-0.58594-0.0117-1.0274-0.38672-0.99219-0.83203l0.32031-4.0078c0.0352-0.41797 0.51563-0.75 1.082-0.73438l14.246 0.35547c0.55859 0.0117 1.0234 0.36328 1.0352 0.78516l0.11719 4.0078c0.0117 0.44531-0.44922 0.79687-1.0312 0.78125" fill="#2875a1"/>
  <path d="m233.32 364.13-14.75-0.35157c-0.58203-0.0156-1.0742-0.39062-1.0976-0.83984l-0.20313-4.0391c-0.0234-0.42188 0.41406-0.75391 0.97656-0.73828l14.219 0.35156c0.5625 0.0117 1.0664 0.36719 1.1328 0.78906l0.64453 4.0391c0.0703 0.44922-0.33985 0.80469-0.92188 0.78907" fill="#175175"/>
  <path d="m233.23 363.55-14.699-0.35547c-0.57813-0.0117-1.0664-0.38672-1.0898-0.83203l-0.20703-4.0078c-0.0195-0.42188 0.41797-0.75 0.97656-0.73828l14.168 0.35547c0.5586 0.0117 1.0625 0.36328 1.1289 0.78515l0.64062 4.0078c0.0703 0.44532-0.33984 0.79688-0.91796 0.78516" fill="#2875a1"/>
  <path d="m253.49 364.62-14.668-0.35156c-0.58204-0.0156-1.1172-0.39063-1.1992-0.83985l-0.72657-4.0391c-0.0781-0.42187 0.3125-0.7539 0.8711-0.73828l14.141 0.34766c0.5586 0.0156 1.1055 0.36718 1.2266 0.78906l1.1641 4.043c0.1289 0.44922-0.23438 0.80469-0.8086 0.78906" fill="#175175"/>
  <path d="m253.33 364.04-14.613-0.35157c-0.57812-0.0156-1.1094-0.39062-1.1914-0.83593l-0.72656-4.0117c-0.0742-0.41797 0.31641-0.7461 0.8711-0.73438l14.094 0.35156c0.55468 0.0156 1.0976 0.36329 1.2188 0.78516l1.1562 4.0117c0.125 0.44531-0.23438 0.79687-0.8086 0.78516" fill="#2875a1"/>
  <path d="m273.55 365.1-14.586-0.34766c-0.57812-0.0156-1.1562-0.39062-1.293-0.83984l-1.25-4.043c-0.13281-0.42187 0.21094-0.75391 0.76953-0.74219l14.066 0.35157c0.55078 0.0117 1.1406 0.36718 1.3164 0.78906l1.6758 4.043c0.1875 0.44922-0.125 0.80468-0.69922 0.78906" fill="#175175"/>
  <path d="m273.31 364.52-14.531-0.35156c-0.57422-0.0117-1.1524-0.38672-1.2891-0.83594l-1.2383-4.0078c-0.13281-0.42187 0.21094-0.75 0.76563-0.73828l14.016 0.35156c0.55078 0.0117 1.1406 0.36328 1.3125 0.78125l1.6641 4.0156c0.18359 0.44531-0.12891 0.79687-0.69922 0.78515" fill="#2875a1"/>
  <path d="m293.5 365.58-14.504-0.34766c-0.57031-0.0156-1.1953-0.39062-1.3906-0.83984l-1.7617-4.043c-0.18359-0.42578 0.11328-0.75391 0.66406-0.74219l13.992 0.34766c0.55078 0.0117 1.1797 0.36719 1.4102 0.78906l2.1836 4.043c0.24219 0.44922-0.0234 0.80469-0.59375 0.79297" fill="#175175"/>
  <path d="m293.19 365-14.453-0.34766c-0.57031-0.0117-1.1914-0.38672-1.3828-0.83203l-1.75-4.0156c-0.18359-0.42187 0.11328-0.75 0.66406-0.73437l13.941 0.34766c0.54687 0.0117 1.1758 0.36328 1.4023 0.78125l2.168 4.0156c0.24219 0.44531-0.0234 0.80078-0.58984 0.78516" fill="#2875a1"/>
  <path d="m313.33 366.05-14.422-0.34375c-0.57031-0.0156-1.2383-0.39062-1.4883-0.83984l-2.2695-4.043c-0.23828-0.42578 0.0156-0.75781 0.56641-0.74219l13.91 0.34375c0.55078 0.0156 1.2188 0.36719 1.5 0.78907l2.6875 4.0469c0.29688 0.44922 0.082 0.80469-0.48437 0.78906" fill="#175175"/>
  <path d="m312.95 365.47-14.371-0.34766c-0.5664-0.0117-1.2305-0.38672-1.4805-0.83203l-2.2539-4.0156c-0.23438-0.42188 0.0195-0.75 0.5664-0.73828l13.867 0.34765c0.54297 0.0117 1.2109 0.36328 1.4922 0.78125l2.6641 4.0195c0.29688 0.44532 0.082 0.79688-0.48437 0.78516" fill="#2875a1"/>
  <path d="m339.83 366.69-21.117-0.5039c-0.56641-0.0156-1.2773-0.39453-1.5859-0.83985l-2.7695-4.0469c-0.28906-0.42578-0.082-0.75781 0.46485-0.74219l20.379 0.50391c0.54297 0.0156 1.2656 0.36718 1.6172 0.79297l3.3555 4.0469c0.37109 0.44922 0.21875 0.80469-0.34375 0.78906" fill="#175175"/>
  <path d="m339.36 366.11-21.043-0.5039c-0.56641-0.0156-1.2695-0.39063-1.5781-0.83594l-2.75-4.0156c-0.28906-0.42187-0.0781-0.75 0.46485-0.73437l20.309 0.5039c0.54297 0.0117 1.2617 0.36329 1.6133 0.78516l3.3281 4.0156c0.36718 0.44921 0.21484 0.80078-0.34375 0.78515" fill="#2875a1"/>
  <path d="m98.916 377.91-16.969-0.36719c-0.66797-0.0156-0.87109-0.47656-0.45312-1.0274l3.7617-4.9414c0.39454-0.51172 1.2305-0.91797 1.875-0.90235l16.27 0.36719c0.63672 0.0156 0.88672 0.44141 0.55469 0.95703l-3.1875 4.9414c-0.35547 0.55078-1.1836 0.98828-1.8516 0.97266" fill="#175175"/>
  <path d="m99.38 377.2-16.895-0.3711c-0.66797-0.0117-0.87109-0.46875-0.45312-1.0156l3.7266-4.9023c0.39063-0.50782 1.2266-0.91016 1.8633-0.89454l16.203 0.36719c0.63671 0.0156 0.88671 0.4375 0.55859 0.94922l-3.1641 4.9023c-0.35157 0.54297-1.1758 0.97657-1.8399 0.96485" fill="#2875a1"/>
  <path d="m122.11 378.41-16.863-0.36329c-0.66406-0.0156-0.92578-0.47265-0.58203-1.0234l3.0703-4.9414c0.32031-0.51562 1.0976-0.92187 1.7344-0.90625l16.172 0.36719c0.63671 0.0117 0.9375 0.4414 0.67968 0.95703l-2.5039 4.9375c-0.28125 0.55078-1.0469 0.98828-1.707 0.97266" fill="#175175"/>
  <path d="m122.47 377.7-16.789-0.36328c-0.66015-0.0156-0.92187-0.47266-0.58203-1.0195l3.0469-4.8984c0.3164-0.51172 1.0898-0.91016 1.7266-0.89844l16.102 0.36719c0.63282 0.0117 0.9375 0.4375 0.67969 0.94922l-2.4844 4.8984c-0.27735 0.54688-1.0391 0.98047-1.6992 0.96485" fill="#2875a1"/>
  <path d="m145.15 378.91-16.75-0.36329c-0.66406-0.0117-0.98047-0.47265-0.71485-1.0234l2.3906-4.9414c0.25-0.51562 0.96484-0.91797 1.5977-0.90234l16.07 0.35937c0.63281 0.0156 0.99219 0.44531 0.80078 0.95703l-1.832 4.9414c-0.20313 0.55078-0.90235 0.98828-1.5625 0.97266" fill="#175175"/>
  <path d="m145.42 378.2-16.68-0.36328c-0.66015-0.0156-0.98047-0.47266-0.71484-1.0156l2.3711-4.8984c0.2461-0.51171 0.95703-0.91406 1.5898-0.89843l16.008 0.36328c0.6289 0.0117 0.98437 0.4375 0.79687 0.94922l-1.8164 4.8984c-0.20313 0.54297-0.89844 0.97657-1.5547 0.96485" fill="#2875a1"/>
  <path d="m168.04 379.41-16.648-0.35938c-0.65625-0.0156-1.0352-0.47656-0.84375-1.0273l1.7188-4.9375c0.17969-0.51562 0.83594-0.92187 1.4648-0.90625l15.977 0.35938c0.625 0.0156 1.0391 0.44531 0.91407 0.95703l-1.1641 4.9414c-0.1289 0.55078-0.76562 0.98438-1.418 0.97266" fill="#175175"/>
  <path d="m168.22 378.7-16.578-0.36328c-0.65235-0.0117-1.0274-0.46875-0.83985-1.0156l1.7031-4.8984c0.17968-0.51172 0.83203-0.91016 1.4609-0.89844l15.906 0.36328c0.625 0.0117 1.0352 0.4375 0.91407 0.94922l-1.1524 4.8984c-0.1289 0.54297-0.76172 0.97656-1.4141 0.96484" fill="#2875a1"/>
  <path d="m279.99 381.83-105.73-2.2891c-0.65625-0.0117-1.0898-0.47265-0.97265-1.0234l1.0547-4.9375c0.10938-0.51562 0.70704-0.91796 1.332-0.90625l101.54 2.2969c0.60938 0.0117 1.2774 0.4375 1.4883 0.95312l2.0352 4.9336c0.22656 0.55078-0.10547 0.98828-0.73828 0.97265" fill="#175175"/>
  <path d="m279.7 381.12-105.3-2.2891c-0.64843-0.0117-1.082-0.46875-0.96484-1.0156l1.043-4.8984c0.10937-0.51172 0.70312-0.91015 1.3281-0.89844l101.13 2.2969c0.60547 0.0117 1.2695 0.43359 1.4805 0.94531l2.0195 4.8945c0.22265 0.54688-0.10547 0.98047-0.73828 0.96485" fill="#2875a1"/>
  <path d="m302.43 382.32-16.031-0.34766c-0.63281-0.0156-1.3438-0.47656-1.582-1.0234l-2.1484-4.9336c-0.22657-0.51563 0.0859-0.91797 0.69531-0.90625l15.406 0.34765c0.60547 0.0156 1.3203 0.44141 1.5976 0.95704l2.6641 4.9336c0.29687 0.54687 0.0273 0.98437-0.60157 0.97266" fill="#175175"/>
  <path d="m302.05 381.61-15.969-0.34766c-0.62891-0.0156-1.3359-0.47265-1.5703-1.0156l-2.1328-4.8945c-0.22265-0.51172 0.0899-0.91016 0.69532-0.89844l15.344 0.34765c0.60546 0.0156 1.3164 0.4375 1.5898 0.94922l2.6445 4.8945c0.29297 0.54297 0.0234 0.97657-0.60156 0.96485" fill="#2875a1"/>
  <path d="m324.34 382.79-15.93-0.34375c-0.6289-0.0156-1.3906-0.47265-1.6992-1.0234l-2.7656-4.9297c-0.28906-0.51563-0.0352-0.92188 0.57031-0.90625l15.312 0.34375c0.60547 0.0156 1.3672 0.4414 1.7109 0.95703l3.2734 4.9297c0.36328 0.55078 0.15234 0.98437-0.47266 0.97265" fill="#175175"/>
  <path d="m323.87 382.08-15.867-0.34375c-0.625-0.0156-1.3828-0.46875-1.6875-1.0156l-2.7461-4.8906c-0.28516-0.51171-0.0273-0.91406 0.57422-0.89843l15.254 0.34375c0.59766 0.0156 1.3594 0.4375 1.6992 0.94922l3.2461 4.8906c0.36328 0.54688 0.15234 0.97656-0.47266 0.96484" fill="#2875a1"/>
  <path d="m353.6 383.43-23.309-0.5039c-0.6289-0.0156-1.4414-0.47266-1.8164-1.0234l-3.375-4.9297c-0.35547-0.51562-0.15235-0.91797 0.44922-0.90625l22.414 0.50782c0.59765 0.0117 1.4258 0.4414 1.8555 0.95312l4.082 4.9297c0.45312 0.54687 0.32031 0.98437-0.30078 0.97265" fill="#175175"/>
  <path d="m353.01 382.71-23.219-0.50391c-0.625-0.0156-1.4336-0.46875-1.8047-1.0117l-3.3516-4.8945c-0.34766-0.51172-0.14454-0.91016 0.45312-0.89844l22.328 0.50782c0.59765 0.0156 1.418 0.4375 1.8438 0.94921l4.0508 4.8867c0.44922 0.54688 0.3164 0.98047-0.30078 0.96485" fill="#2875a1"/>
  <path d="m121.42 354.16-21.426-0.53515c-0.57422-0.0156-0.78906-0.35938-0.47656-0.76563l2.7891-3.6641c0.28906-0.38281 0.97656-0.67969 1.5312-0.66797l20.664 0.53125c0.54688 0.0156 0.80859 0.33594 0.57813 0.72266l-2.1875 3.6641c-0.24219 0.41016-0.90235 0.72656-1.4727 0.71484" fill="#175175"/>
  <path d="m121.73 353.63-21.348-0.53516c-0.57031-0.0156-0.78516-0.35547-0.47656-0.75781l2.7695-3.6367c0.28906-0.38281 0.97265-0.67969 1.5234-0.66406l20.59 0.53125c0.55078 0.0117 0.80859 0.33203 0.58203 0.71484l-2.1758 3.6406c-0.23828 0.40234-0.89844 0.72265-1.4648 0.70703" fill="#2875a1"/>
  <path d="m147.94 354.82-21.27-0.53516c-0.57031-0.0117-0.83984-0.35547-0.60547-0.76172l2.1055-3.668c0.22266-0.38281 0.84766-0.68359 1.3984-0.66797l20.516 0.52735c0.54688 0.0117 0.86329 0.33593 0.70313 0.71875l-1.5195 3.6719c-0.16797 0.40625-0.76563 0.72656-1.3281 0.71485" fill="#175175"/>
  <path d="m148.16 354.29-21.188-0.52735c-0.57031-0.0156-0.83984-0.35547-0.60937-0.76172l2.0938-3.6406c0.22265-0.37891 0.84375-0.67578 1.3906-0.66406l20.445 0.52734c0.54296 0.0156 0.85937 0.33594 0.69921 0.71484l-1.5039 3.6445c-0.16797 0.40625-0.76172 0.72266-1.3281 0.70704" fill="#2875a1"/>
  <path d="m174.28 355.48-21.113-0.52735c-0.5625-0.0156-0.89453-0.35937-0.73437-0.76562l1.4375-3.6719c0.15234-0.38281 0.71484-0.68359 1.2617-0.66797l20.375 0.52344c0.54297 0.0117 0.91015 0.33594 0.82031 0.72266l-0.85547 3.6719c-0.0937 0.40625-0.62891 0.73047-1.1914 0.71485" fill="#175175"/>
  <path d="m174.4 354.95-21.035-0.52734c-0.5625-0.0156-0.89063-0.35547-0.73047-0.75781l1.4258-3.6445c0.14844-0.38281 0.71094-0.67968 1.2578-0.66796l20.301 0.52343c0.53907 0.0156 0.90625 0.33203 0.82032 0.71875l-0.85157 3.6445c-0.0937 0.40625-0.625 0.72657-1.1875 0.71094" fill="#2875a1"/>
  <path d="m200.42 356.13-20.961-0.52344c-0.5586-0.0156-0.94531-0.35937-0.85938-0.76562l0.77735-3.6758c0.082-0.38282 0.58593-0.6836 1.1289-0.66797l20.23 0.51953c0.53906 0.0117 0.95703 0.33594 0.9375 0.72265l-0.20312 3.6758c-0.0234 0.41015-0.4961 0.73046-1.0508 0.71484" fill="#175175"/>
  <path d="m200.45 355.6-20.883-0.52344c-0.55859-0.0117-0.94531-0.35547-0.85937-0.75781l0.77344-3.6524c0.082-0.3789 0.58203-0.67578 1.125-0.66406l20.16 0.51953c0.53516 0.0156 0.95313 0.33594 0.9336 0.71875l-0.20313 3.6484c-0.0234 0.40625-0.49219 0.72656-1.0469 0.71094" fill="#2875a1"/>
  <path d="m226.37 356.78-20.809-0.51953c-0.5586-0.0156-0.9961-0.35547-0.98438-0.76563l0.125-3.6758c0.0117-0.38672 0.46094-0.6875 1-0.67188l20.09 0.51563c0.53515 0.0117 1.0039 0.33594 1.0508 0.72266l0.4414 3.6797c0.0469 0.40625-0.35937 0.72657-0.91406 0.71485" fill="#175175"/>
  <path d="m226.31 356.25-20.734-0.51953c-0.55469-0.0156-0.99609-0.35547-0.98047-0.76172l0.1211-3.6484c0.0156-0.38672 0.46093-0.6836 0.99609-0.66797l20.02 0.51562c0.53516 0.0117 1.0039 0.33203 1.0508 0.71875l0.4375 3.6524c0.0469 0.40625-0.35937 0.72656-0.91015 0.71093" fill="#2875a1"/>
  <path d="m252.14 357.42-20.656-0.51563c-0.55469-0.0156-1.0508-0.35937-1.1094-0.76562l-0.51562-3.6836c-0.0547-0.38281 0.33593-0.68359 0.87109-0.67187l19.949 0.51172c0.53125 0.0156 1.0508 0.33984 1.1641 0.72656l1.0742 3.6797c0.12109 0.41015-0.22656 0.73047-0.77734 0.71875" fill="#175175"/>
  <path d="m251.99 356.89-20.582-0.51953c-0.55078-0.0117-1.0469-0.35156-1.1016-0.75781l-0.51563-3.6562c-0.0547-0.38281 0.33594-0.67969 0.86719-0.66797l19.883 0.51172c0.52735 0.0156 1.0469 0.33594 1.1602 0.71875l1.0664 3.6602c0.12109 0.40234-0.22657 0.72265-0.77735 0.71093" fill="#2875a1"/>
  <path d="m277.72 358.06-20.512-0.51562c-0.54688-0.0117-1.0977-0.35547-1.2266-0.76563l-1.1484-3.6836c-0.1211-0.38672 0.21094-0.6875 0.74219-0.67188l19.809 0.50782c0.53125 0.0156 1.1016 0.33593 1.2812 0.72265l1.6992 3.6875c0.1875 0.40625-0.10156 0.73047-0.64453 0.71875" fill="#175175"/>
  <path d="m277.48 357.53-20.438-0.51172c-0.54688-0.0117-1.0938-0.35546-1.2188-0.76171l-1.1445-3.6562c-0.1211-0.38282 0.21094-0.6836 0.74219-0.66797l19.742 0.50781c0.52735 0.0117 1.0938 0.33203 1.2734 0.71875l1.6875 3.6602c0.1875 0.40625-0.0977 0.72265-0.64453 0.71093" fill="#2875a1"/>
  <path d="m303.11 358.7-20.359-0.50782c-0.54687-0.0156-1.1484-0.35937-1.3438-0.76953l-1.7773-3.6836c-0.1875-0.38672 0.0898-0.69141 0.61719-0.67578l19.676 0.50781c0.52344 0.0117 1.1445 0.33594 1.3867 0.72266l2.3164 3.6875c0.25782 0.41015 0.0274 0.73046-0.51562 0.71875" fill="#175175"/>
  <path d="m302.79 358.16-20.289-0.50782c-0.54297-0.0117-1.1445-0.35547-1.3398-0.76172l-1.7617-3.6602c-0.1875-0.38281 0.0898-0.6836 0.61328-0.66797l19.609 0.50391c0.52344 0.0117 1.1406 0.33593 1.3828 0.71875l2.3008 3.6641c0.2539 0.40625 0.0273 0.72656-0.51563 0.71094" fill="#2875a1"/>
  <path d="m333.89 359.46-25.777-0.64453c-0.53906-0.0117-1.1953-0.35938-1.4609-0.76563l-2.3906-3.6914c-0.25-0.38671-0.0274-0.6875 0.49609-0.67578l24.91 0.64063c0.52343 0.0156 1.1992 0.33594 1.5234 0.72656l3.0586 3.6914c0.33984 0.41015 0.17968 0.73047-0.35938 0.71875" fill="#175175"/>
  <path d="m333.46 358.93-25.688-0.64453c-0.53906-0.0117-1.1914-0.35157-1.4531-0.75782l-2.375-3.6641c-0.25-0.38672-0.0312-0.6875 0.49219-0.67187l24.828 0.63671c0.51953 0.0156 1.1953 0.33594 1.5156 0.72266l3.0391 3.668c0.33594 0.40625 0.17578 0.72656-0.35937 0.71094" fill="#2875a1"/>
  <path d="m142.64 348.06-16.367-0.42578c-0.54687-0.0117-0.80468-0.32813-0.58203-0.69922l2.0274-3.3516c0.21484-0.35156 0.8125-0.625 1.3398-0.60937l15.816 0.42187c0.52343 0.0117 0.8125 0.3086 0.64843 0.66016l-1.582 3.3555c-0.17578 0.37109-0.75781 0.66016-1.3008 0.64844" fill="#175175"/>
  <path d="m142.87 347.58-16.312-0.42578c-0.54297-0.0117-0.80078-0.32422-0.57812-0.69532l2.0117-3.3242c0.21485-0.35157 0.8086-0.6211 1.332-0.60938l15.766 0.42188c0.52344 0.0117 0.8125 0.30468 0.64844 0.65625l-1.5742 3.332c-0.17188 0.36718-0.75391 0.65625-1.293 0.64453" fill="#2875a1"/>
  <path d="m163.78 348.61-16.277-0.42187c-0.53906-0.0156-0.84375-0.32813-0.67578-0.69922l1.5117-3.3555c0.16015-0.35156 0.71094-0.625 1.2344-0.60938l15.73 0.41797c0.51953 0.0117 0.85156 0.3086 0.73828 0.66016l-1.0742 3.3555c-0.11718 0.375-0.64843 0.66406-1.1875 0.65234" fill="#175175"/>
  <path d="m163.93 348.12-16.219-0.41797c-0.53906-0.0156-0.83984-0.32813-0.67578-0.69531l1.5039-3.332c0.15625-0.34765 0.70703-0.62109 1.2266-0.60546l15.676 0.41796c0.51953 0.0117 0.85157 0.30469 0.73828 0.65625l-1.0664 3.332c-0.11719 0.37109-0.64844 0.66015-1.1836 0.64453" fill="#2875a1"/>
  <path d="m184.78 349.15-16.176-0.41797c-0.53906-0.0156-0.88672-0.32812-0.77344-0.69922l1.0039-3.3594c0.10547-0.35156 0.60937-0.625 1.1289-0.61328l15.641 0.41797c0.51953 0.0117 0.89062 0.30859 0.82812 0.66015l-0.5664 3.3594c-0.0625 0.375-0.54688 0.66797-1.0859 0.65234" fill="#175175"/>
  <path d="m184.86 348.67-16.121-0.42187c-0.53906-0.0117-0.88281-0.32422-0.77343-0.69141l0.99609-3.3359c0.10547-0.35156 0.60938-0.62109 1.1289-0.60937l15.586 0.41406c0.51954 0.0156 0.88672 0.30859 0.82813 0.66016l-0.5625 3.3359c-0.0625 0.3711-0.54688 0.66016-1.082 0.64844" fill="#2875a1"/>
  <path d="m205.67 349.69-16.086-0.41797c-0.53515-0.0156-0.92187-0.32812-0.86719-0.69922l0.5-3.3633c0.0508-0.35156 0.51563-0.62891 1.0312-0.61328l15.551 0.41406c0.51562 0.0117 0.92578 0.3086 0.91796 0.66406l-0.0703 3.3633c-8e-3 0.37109-0.44531 0.66406-0.97656 0.65234" fill="#175175"/>
  <path d="m205.68 349.21-16.027-0.41796c-0.53515-0.0117-0.92187-0.32422-0.86718-0.69532l0.49609-3.3359c0.0547-0.35157 0.51172-0.625 1.0273-0.60938l15.5 0.41406c0.51563 0.0117 0.92579 0.30469 0.91797 0.65625l-0.0703 3.3438c-8e-3 0.36719-0.44531 0.66016-0.97656 0.64453" fill="#2875a1"/>
  <path d="m226.43 350.23-15.992-0.41407c-0.53125-0.0117-0.96485-0.32812-0.96485-0.69922l4e-3 -3.3672c0-0.35157 0.41797-0.625 0.93359-0.61328l15.461 0.41015c0.51172 0.0156 0.96484 0.3125 1.0078 0.66406l0.42188 3.3672c0.0469 0.375-0.34375 0.66797-0.8711 0.65235" fill="#175175"/>
  <path d="m226.37 349.75-15.938-0.41407c-0.53125-0.0156-0.96094-0.32812-0.96094-0.69921l4e-3 -3.3398c0-0.35156 0.41797-0.625 0.92969-0.60937l15.414 0.41015c0.50781 0.0117 0.95703 0.3086 1.0039 0.66016l0.41796 3.3438c0.0469 0.37109-0.34375 0.66016-0.87109 0.64844" fill="#2875a1"/>
  <path d="m247.08 350.76-15.902-0.41015c-0.52734-0.0156-1-0.32813-1.0547-0.70313l-0.48828-3.3672c-0.0508-0.35547 0.32032-0.6289 0.83203-0.61718l15.379 0.41015c0.50781 0.0156 1 0.3125 1.0938 0.66406l0.91016 3.3711c0.10156 0.375-0.2461 0.66797-0.76953 0.65234" fill="#175175"/>
  <path d="m246.95 350.28-15.844-0.41406c-0.52734-0.0117-1-0.32812-1.0547-0.69922l-0.48437-3.3438c-0.0508-0.35156 0.32031-0.62109 0.83203-0.60937l15.324 0.40625c0.51172 0.0156 0.99609 0.30859 1.0938 0.66406l0.90234 3.3477c0.10156 0.36718-0.24609 0.66015-0.76953 0.64843" fill="#2875a1"/>
  <path d="m267.6 351.29-15.809-0.41015c-0.52344-0.0117-1.0391-0.32813-1.1484-0.69922l-0.97265-3.3711c-0.10157-0.35547 0.22656-0.6289 0.73437-0.61718l15.293 0.40625c0.50391 0.0156 1.0352 0.3125 1.1797 0.66406l1.3906 3.375c0.15625 0.375-0.14453 0.66797-0.66797 0.65234" fill="#175175"/>
  <path d="m267.4 350.81-15.754-0.41015c-0.52343-0.0156-1.0391-0.32813-1.1445-0.69922l-0.96875-3.3477c-0.10156-0.35156 0.22657-0.625 0.73438-0.60937l15.242 0.40234c0.5039 0.0156 1.0312 0.30859 1.1758 0.66406l1.3828 3.3477c0.15234 0.37109-0.14844 0.66406-0.66797 0.65234" fill="#2875a1"/>
  <path d="m288.01 351.82-15.715-0.41015c-0.52344-0.0117-1.0781-0.32813-1.2383-0.70313l-1.457-3.3711c-0.15235-0.35547 0.13281-0.63282 0.64062-0.61719l15.207 0.40234c0.5 0.0156 1.0664 0.3125 1.2656 0.66407l1.8672 3.3789c0.20312 0.375-0.0469 0.66797-0.57032 0.65625" fill="#175175"/>
  <path d="m287.74 351.34-15.664-0.40625c-0.52344-0.0156-1.0742-0.32813-1.2344-0.69922l-1.4453-3.3516c-0.15625-0.35157 0.13282-0.625 0.63672-0.61329l15.156 0.40625c0.50391 0.0117 1.0664 0.3086 1.2617 0.66016l1.8555 3.3516c0.20313 0.375-0.0469 0.66407-0.56641 0.65235" fill="#2875a1"/>
  <path d="m308.3 352.35-15.629-0.40234c-0.51954-0.0156-1.1133-0.33204-1.3281-0.70313l-1.9336-3.3789c-0.19922-0.35546 0.043-0.6289 0.54687-0.61718l15.121 0.40234c0.5 0.0117 1.1055 0.30859 1.3516 0.66406l2.3359 3.3789c0.26171 0.375 0.0508 0.67187-0.46485 0.65625" fill="#175175"/>
  <path d="m307.97 351.86-15.574-0.40625c-0.51953-0.0117-1.1133-0.32421-1.3242-0.69531l-1.918-3.3555c-0.20312-0.35156 0.043-0.625 0.54297-0.61328l15.074 0.40235c0.5 0.0117 1.0977 0.30859 1.3438 0.66015l2.3203 3.3594c0.25782 0.37109 0.0508 0.66015-0.46484 0.64843" fill="#2875a1"/>
  <path d="m328.47 352.87-15.535-0.40235c-0.51953-0.0156-1.1523-0.32812-1.418-0.70312l-2.4023-3.3828c-0.25391-0.35157-0.0508-0.62891 0.44922-0.61719l15.039 0.39844c0.5 0.0156 1.1406 0.3125 1.4336 0.66796l2.8047 3.3828c0.30859 0.375 0.14453 0.66797-0.37109 0.65625" fill="#175175"/>
  <path d="m328.07 352.39-15.484-0.40234c-0.51562-0.0117-1.1484-0.32813-1.4141-0.69922l-2.3828-3.3594c-0.25-0.35156-0.0508-0.625 0.44922-0.61328l14.992 0.40235c0.49609 0.0117 1.1328 0.30859 1.4258 0.66015l2.7852 3.3594c0.3086 0.375 0.14453 0.66406-0.37109 0.65234" fill="#2875a1"/>
  <path d="m246.99 408.27-53.855-1.0234c-2.4102-0.0469-4.1602-2.082-3.9141-4.4961l1.7422-16.961c0.20312-1.9844 2.0859-3.5195 4.2031-3.4726l47.422 1.0664c2.0898 0.0469 4.0976 1.6562 4.4883 3.6406l3.3398 16.926c0.47657 2.4102-1.0547 4.3672-3.4258 4.3203" fill="#87c5eb"/>
  <path d="m323.12 343.11-221-4.6641c-6.3594-0.13282-11.68-5.4492-11.906-11.891l-5.0156-142.54c-0.24609-7.0039 4.9297-12.812 11.582-12.945l231.91-4.6641c7.457-0.15234 13.312 5.7969 13.047 13.254l-5.3242 151.38c-0.24219 6.8281-6.1992 12.219-13.289 12.066" fill="#2875a1"/>
  <path d="m323.12 343.11 0.0195-1-221-4.6641c-5.8008-0.10938-10.727-5.0156-10.926-10.926l-5.0156-142.54c-4e-3 -0.15235-8e-3 -0.29688-8e-3 -0.44531 0-3.1445 1.1758-5.9844 3.0898-8.0508 1.918-2.0664 4.5508-3.3555 7.5195-3.4141l231.91-4.668h0.25391c3.3203 0 6.2539 1.3008 8.3711 3.418s3.4102 5.0508 3.4141 8.3594c0 0.14453-4e-3 0.29687-8e-3 0.44531l-5.3281 151.38c-0.10938 3.0859-1.4883 5.8516-3.6602 7.8633-2.168 2.0078-5.1172 3.2422-8.3398 3.2422l-0.26953-4e-3 -0.0195 1-0.0234 1c0.10547 4e-3 0.20703 4e-3 0.3125 4e-3 3.7383 0 7.168-1.4336 9.6992-3.7773 2.5312-2.3398 4.1719-5.6094 4.3008-9.2578l5.3242-151.38c8e-3 -0.17187 0.0117-0.34765 0.0117-0.51562 0-3.8359-1.5156-7.2891-3.9961-9.7734-2.4844-2.4844-5.9414-4.0078-9.7891-4.0039-0.0977 0-0.19531 0-0.29297 4e-3l-231.91 4.6641c-3.5312 0.0703-6.6914 1.6211-8.9453 4.0547-2.2539 2.4375-3.6211 5.7656-3.6211 9.4102 0 0.17187 4e-3 0.34375 8e-3 0.51562l5.0156 142.54c0.25781 6.9766 5.9726 12.699 12.883 12.855l221 4.6641 0.0234-1" fill="#4a9ccc"/>
  <path d="m332.28 182.53-1.3984 42.816-0.36718 11.359-2.9922 91.684c-0.125 3.8906-3.5078 6.9766-7.5391 6.8945l-86.383-1.6641-10.785-0.20703-86.359-1.6641-19.41-0.37891-12.125-0.23047c-2.4492-0.0586-4.6289-1.457-5.832-3.4883-0.57421-0.98047-0.92187-2.1016-0.95703-3.3008l-1.4297-43.359-3.1094-94.559c-0.125-3.9844 2.832-7.2852 6.6172-7.3438l100.2-1.8125 49.977-0.91406 22.066-0.40235 20.148-0.35937 32.273-0.58594c4.2148-0.082 7.5391 3.2891 7.4023 7.5156" fill="#d4f0fa"/>
  <path d="m155.64 223.74 19.57-26.34c0.36719-0.4961 1.0938-0.52735 1.5078-0.0703 3.418 3.8086 16.086 19.699 8.2773 38.473-0.20312 0.48828-0.77343 0.72266-1.2695 0.52344l-27.668-11.102c-0.59375-0.23829-0.80078-0.97266-0.41796-1.4844" fill="#f8a142"/>
  <path d="m153.31 229.2-23.027 22.879c-0.44531 0.44141-0.36328 1.1758 0.16406 1.5117 5.5 3.5352 32.422 18.715 51.988-8.6367 0.34375-0.48046 0.17969-1.1602-0.34375-1.4336l-27.641-14.492c-0.375-0.19531-0.83594-0.125-1.1406 0.17188" fill="#f04a4c"/>
  <path d="m149.5 228.04-24.363 18.816c-0.39453 0.30078-0.94141 0.26172-1.293-0.0937-1.4336-1.4453-4.707-5.9453-4.9883-17.102-0.0156-0.51563 0.38672-0.96094 0.89844-1.0039l29.07-2.3555c0.96875-0.082 1.4414 1.1484 0.67578 1.7383" fill="#4a9ccc"/>
  <path d="m151.5 222.77h-33.242c-0.61719 0-1.0781-0.5586-0.95703-1.1641 1.4141-6.9492 10.715-42.277 51.805-28.473 0.59375 0.19922 0.85156 0.91406 0.51953 1.4453l-17.297 27.734c-0.17969 0.28515-0.49219 0.45703-0.82812 0.45703" fill="#14233a"/>
  <path d="m230.85 260.69h-5.2656c-0.89062 0-1.7305-0.39063-1.9062-0.88281l-7.25-20.629c-0.17968-0.51562 0.4336-0.9375 1.3594-0.9375h9.5469c0.96094 0 1.8555 0.45703 1.9297 0.98828l2.9727 20.629c0.0664 0.46875-0.53516 0.83203-1.3867 0.83203" fill="#f04a4c"/>
  <path d="m244.54 260.69h3.8828c1.0938 0 1.8945-0.44141 1.8828-1.043l-0.70312-32.996c-0.0156-0.74219-1.2578-1.4141-2.6172-1.4141h-9.2461c-1.168 0-1.9883 0.50391-1.8672 1.1524l6.0625 32.996c0.13281 0.70703 1.3242 1.3047 2.6055 1.3047" fill="#f8a142"/>
  <path d="m261.99 259.17-2.543-41.773c-0.0391-0.66797 0.83984-1.168 2.0586-1.168h13.195c1.5781 0 2.9844 0.82422 2.8555 1.6719l-6.4141 41.773c-0.0898 0.59766-0.9375 1.0156-2.0508 1.0156h-4.2422c-1.4648 0-2.8125-0.71484-2.8594-1.5195" fill="#4a9ccc"/>
  <path d="m282.03 259.09 6.0586-54.145c0.0664-0.59766 0.89844-1.0234 2.0039-1.0234h16.031c1.6289 0 3.0391 0.89063 2.7617 1.7422l-17.504 54.148c-0.16797 0.52734-0.96484 0.88281-1.9766 0.88281h-4.582c-1.5234 0-2.8828-0.78125-2.793-1.6055" fill="#14233a"/>
 </g>
 <g fill="#87c5eb">
  <path d="m132.41 278.23h-8.7617c-1.207 0-2.3672 1.0586-2.3086 2.3086 0.0547 1.25 1.0156 2.3086 2.3086 2.3086h8.7617c1.207 0 2.3633-1.0625 2.3086-2.3086-0.0547-1.2539-1.0156-2.3086-2.3086-2.3086"/>
  <path d="m178.88 289.59c-18.793 0.10156-37.582 0.19922-56.375 0.30078-2.9688 0.0156-2.9766 4.6367 0 4.6211 18.793-0.10157 37.582-0.20313 56.375-0.30469 2.9727-0.0156 2.9805-4.6328 0-4.6172"/>
  <path d="m178.12 302.55c-18.664 0.0781-37.332 0.15234-55.996 0.23047-2.9727 8e-3 -2.9766 4.6289 0 4.6172 18.664-0.0742 37.332-0.15235 55.996-0.22657 2.9688-0.0156 2.9766-4.6328 0-4.6211"/>
  <path d="m156.38 314.36h-34.254c-2.9727 0-2.9805 4.6211 0 4.6211h34.254c2.9688 0 2.9766-4.6211 0-4.6211"/>
  <path d="m238.47 187.53-19.754 0.23438c-2.9688 0.0391-2.9766 4.6562 0 4.6211l19.754-0.23828c2.9688-0.0352 2.9766-4.6523 0-4.6172"/>
  <path d="m258.58 198.71c-13.152 0.19532-26.305 0.39454-39.457 0.59375-2.9727 0.043-2.9805 4.6641 0 4.6172 13.152-0.19531 26.305-0.39453 39.457-0.59375 2.9688-0.043 2.9805-4.6641 0-4.6172"/>
 </g>
 <path d="m301.26 317.41c-19.434 0.23046-45.43 0.46093-64.863 0.6914-4.8125 0.0586-9.625 0.11719-14.441 0.17188 0.28125-11.977 1.1406-37.984 1.4219-49.961 0.0703-2.9727-4.5469-2.9727-4.6172 0-0.29297 12.469-1.1641 38.965-1.457 51.43-8e-3 0.30859 0.0469 0.57422 0.12891 0.8164-0.0352 1.1797 0.69922 2.3789 2.2227 2.3633 19.434-0.23046 38.867-0.46093 58.305-0.6914 5.5781-0.0703 17.723-0.13281 23.301-0.19922 2.9726-0.0391 2.9805-4.6562 0-4.6211" fill="#14233a"/>
 <g fill="#f04a4c">
  <path d="m233.76 309.2h-1c0 0.90625-0.73828 1.6445-1.6445 1.6445s-1.6445-0.73828-1.6445-1.6445c0-0.91016 0.73828-1.6445 1.6445-1.6445 0.91016 0 1.6445 0.73438 1.6445 1.6445h2c0-2.0156-1.6289-3.6445-3.6445-3.6445-2.0117 0-3.6445 1.6289-3.6445 3.6445 0 2.0117 1.6328 3.6445 3.6445 3.6445 2.0156 0 3.6445-1.6328 3.6445-3.6445h-1"/>
  <path d="m255.86 289.06h-1c0 0.91016-0.73437 1.6445-1.6445 1.6445-0.90625 0-1.6445-0.73437-1.6445-1.6445 0-0.90625 0.73437-1.6406 1.6445-1.6445 0.91016 4e-3 1.6445 0.73828 1.6445 1.6445h2c0-2.0117-1.6289-3.6445-3.6445-3.6445-2.0117 0-3.6445 1.6328-3.6445 3.6445 0 2.0156 1.6328 3.6445 3.6445 3.6445 2.0156 0 3.6445-1.6289 3.6445-3.6445h-1"/>
  <path d="m274.33 305.12h-1c0 0.90625-0.73438 1.6406-1.6445 1.6445-0.91015-4e-3 -1.6445-0.73828-1.6445-1.6445 0-0.91016 0.73828-1.6445 1.6445-1.6445s1.6445 0.73437 1.6445 1.6445h2c0-2.0156-1.6328-3.6445-3.6445-3.6445-2.0156 0-3.6445 1.6289-3.6445 3.6445 0 2.0117 1.6289 3.6445 3.6445 3.6445 2.0117 0 3.6445-1.6328 3.6445-3.6445h-1"/>
  <path d="m304.16 275.4h-1c-4e-3 0.90625-0.73828 1.6445-1.6484 1.6445-0.90625 0-1.6406-0.73828-1.6445-1.6445 4e-3 -0.91016 0.73829-1.6445 1.6445-1.6445 0.91015 0 1.6445 0.73437 1.6484 1.6445h2c0-2.0156-1.6328-3.6445-3.6484-3.6445-2.0117 0-3.6406 1.6328-3.6445 3.6445 4e-3 2.0117 1.6328 3.6445 3.6445 3.6445 2.0156 0 3.6484-1.6328 3.6484-3.6445h-1"/>
  <path d="m233.5 308.5 18.719-17.277-1.3555-1.4726-18.719 17.281"/>
  <path d="m254.78 291.23 14.43 12.727 1.3242-1.5-14.434-12.727-1.3203 1.5"/>
  <path d="m274.21 303.93 26.285-25.816-1.4023-1.4258-26.285 25.812"/>
 </g>
 <g>
  <path d="m99.088 327.65c-0.57421-0.98047-0.92187-2.1016-0.95703-3.3008l-1.4297-43.359 63.832-63.836-4.8945 6.5898c-0.38282 0.51172-0.17579 1.2461 0.41796 1.4844l27.668 11.102c0.1211 0.0469 0.2461 0.0703 0.36719 0.0703 0.38281 0 0.75-0.22266 0.90234-0.59375 6.832-16.426-2.0117-30.645-6.6172-36.492l22.035-22.039 36.129-0.66016c-0.33203 3.6641-0.16016 7.3438 0.49609 10.934l-18.324 0.21875c-2.9609 0.0391-2.9766 4.6211-0.0352 4.6211h0.0352l15.84-0.1914-6.9766 6.9766c-2.8203 0.043-5.6367 0.0859-8.4531 0.1289-2.957 0.043-2.9805 4.6172-0.043 4.6172h0.043c1.2539-0.0195 2.5078-0.0352 3.7617-0.0547l-40.301 40.297c-0.0664-0.26172-0.23828-0.5-0.4961-0.63672l-27.641-14.492c-0.14453-0.0742-0.29688-0.10937-0.45313-0.10937-0.25 0-0.5 0.0977-0.6875 0.28125l-23.027 22.879c-0.44531 0.44141-0.36328 1.1758 0.16406 1.5117 3.0156 1.9414 12.488 7.3867 23.652 7.3867 5.1172 0 10.586-1.1406 15.961-4.293l-33.125 33.121c-4.8086 0.0273-9.6172 0.0508-14.426 0.0781-2.9648 0.0156-2.9766 4.6211-0.0156 4.6211h0.0156c3.2617-0.0195 6.5234-0.0352 9.7812-0.0547l-8.3242 8.3242c-0.61328 0-1.2226 4e-3 -1.8359 8e-3 -2.1016 8e-3 -2.7227 2.3242-1.8438 3.6719l-21.195 21.191m24.563-49.414c-1.207 0-2.3672 1.0586-2.3086 2.3086 0.0547 1.25 1.0156 2.3086 2.3086 2.3086h8.7617c1.207 0 2.3633-1.0625 2.3086-2.3086-0.0547-1.2539-1.0156-2.3086-2.3086-2.3086h-8.7617" fill="#e8f8fd"/>
  <path d="m184.09 236.4c-0.12109 0-0.24609-0.0234-0.36719-0.0703l-27.668-11.102c-0.59375-0.23829-0.80078-0.97266-0.41796-1.4844l4.8945-6.5898 17.844-17.84c4.6055 5.8477 13.449 20.066 6.6172 36.492-0.15234 0.37109-0.51953 0.59375-0.90234 0.59375" fill="#fac778"/>
  <path d="m154.1 260.98c-11.164 0-20.637-5.4453-23.652-7.3867-0.52734-0.33593-0.60937-1.0703-0.16406-1.5117l23.027-22.879c0.1875-0.1836 0.4375-0.28125 0.6875-0.28125 0.15625 0 0.3086 0.0352 0.45313 0.10937l27.641 14.492c0.25782 0.13672 0.42969 0.375 0.4961 0.63672l-12.527 12.527c-5.375 3.1524-10.844 4.293-15.961 4.293" fill="#f57a7f"/>
 </g>
 <g fill="#b8def3">
  <path d="m132.41 282.85h-8.7617c-1.293 0-2.2539-1.0586-2.3086-2.3086-0.0586-1.25 1.1016-2.3086 2.3086-2.3086h8.7617c1.293 0 2.2539 1.0547 2.3086 2.3086 0.0547 1.2461-1.1016 2.3086-2.3086 2.3086"/>
  <path d="m122.49 294.51c-2.9609 0-2.9492-4.6055 0.0156-4.6211 4.8086-0.0273 9.6172-0.0508 14.426-0.0781l-4.6445 4.6445c-3.2578 0.0195-6.5195 0.0351-9.7812 0.0547h-0.0156"/>
  <path d="m120.28 306.46c-0.87891-1.3476-0.25782-3.6641 1.8438-3.6719 0.61328-4e-3 1.2226-8e-3 1.8359-8e-3l-3.6797 3.6797"/>
  <path d="m218.68 192.39c-2.9414 0-2.9258-4.582 0.0352-4.6211l18.324-0.21875c0.10938 0.60156 0.23047 1.1992 0.36719 1.7969l-2.8516 2.8516-15.84 0.1914h-0.0352"/>
  <path d="m219.08 203.92c-2.9375 0-2.9141-4.5742 0.043-4.6172 2.8164-0.043 5.6328-0.0859 8.4531-0.1289l-4.6914 4.6914c-1.2539 0.0195-2.5078 0.0352-3.7617 0.0547h-0.043"/>
 </g>
 <g>
  <path d="m136.45 331.75-19.41-0.37891 12.391-12.391h19.793l-12.773 12.77m17.391-17.391h-19.789l7.0312-7.0312c6.6211-0.0273 13.246-0.0547 19.871-0.082l-7.1133 7.1133m-8.1211-11.668 8.3516-8.3516c6.6328-0.0352 13.262-0.0703 19.895-0.10547l-8.375 8.375c-6.6211 0.0274-13.25 0.0547-19.871 0.082m12.992-12.996 85.488-85.484c2.6367 3.5859 5.9141 6.7891 9.8008 9.4297 0.10938 0.0742 0.22266 0.14844 0.33594 0.22656l-11.375 11.375h-5.2227c-1.168 0-1.9883 0.50391-1.8672 1.1524l0.92187 5.0156-7.6094 7.6055c-0.2461-0.43359-1.0234-0.76953-1.8516-0.76953h-9.5469c-0.92578 0-1.5391 0.42188-1.3594 0.9375l3.2734 9.3164-41.09 41.09c-6.6328 0.0352-13.266 0.0703-19.898 0.10547" fill="#e8f8fd"/>
  <path d="m219.7 248.5-3.2734-9.3164c-0.17968-0.51562 0.4336-0.9375 1.3594-0.9375h9.5469c0.82813 0 1.6055 0.33594 1.8516 0.76953l-9.4844 9.4844" fill="#f57a7f"/>
  <path d="m236.8 231.41-0.92187-5.0156c-0.1211-0.64844 0.69922-1.1524 1.8672-1.1524h5.2227l-6.168 6.168" fill="#fac778"/>
 </g>
 <g fill="#b8def3">
  <path d="m154.08 294.34 4.6406-4.6445c6.6328-0.0352 13.266-0.0703 19.898-0.10547l-4.6445 4.6445c-6.6328 0.0352-13.262 0.0703-19.895 0.10547"/>
  <path d="m141.09 307.32 4.6367-4.6367c6.6211-0.0273 13.25-0.0547 19.871-0.082l-4.6367 4.6367c-6.625 0.0273-13.25 0.0547-19.871 0.082"/>
  <path d="m149.23 318.98h-19.793l4.6211-4.6211h19.789l-4.6172 4.6211"/>
 </g>
 <g>
  <path d="m233.6 333.62-10.785-0.20703 10.652-10.648c3.707-0.0469 7.4141-0.0898 11.121-0.13281l-10.988 10.988m4.5391-15.531 22.07-22.066 5.8398 5.1484-16.793 16.797c-3.8555 0.0391-7.582 0.0781-11.117 0.12109" fill="#e6f5fd"/>
  <path d="m233.47 322.76 4.6719-4.6758c3.5352-0.043 7.2617-0.082 11.117-0.12109l-4.668 4.6641c-3.707 0.043-7.4141 0.0859-11.121 0.13281" fill="#14213a"/>
  <path d="m267.47 299.75-5.8438-5.1484 69.258-69.258-0.36718 11.359-63.047 63.047" fill="#e6f5fd"/>
  <path d="m266.05 301.17-5.8398-5.1484 1.4141-1.418 5.8438 5.1484-1.418 1.418" fill="#f0514f"/>
  <path d="m422.81 137.91c-1.043-2.4609-2.3047-4.8242-3.7461-7.0547l-8.9844 5.5977-3.8086-1.9922 1.0234 3.7266c3.2383 5.1875 5.0078 11.246 4.9688 17.367 0.0195 3.2148-0.46094 6.4141-1.3945 9.4766l-5.1523 5.0195 1.0234 3.7266 11.5 7.6719c1.8047-2.582 3.3438-5.3438 4.5703-8.2656 2.3359-5.5625 3.5469-11.609 3.5703-17.629-0.0234-6.0352-1.2344-12.082-3.5703-17.645" fill="#c52828"/>
  <path d="m425.36 151.82c-0.0234 6.0234-1.2344 12.07-3.5742 17.633-1.2226 2.9219-2.7617 5.6836-4.5664 8.2656l-11.5-7.6719c3.5859-5.3789 5.5625-11.766 5.5234-18.227 0.0391-6.1172-1.7305-12.176-4.9688-17.363l11.77-7.332c1.4414 2.2305 2.7031 4.5938 3.7422 7.0547 2.3398 5.5625 3.5508 11.605 3.5742 17.641" fill="#f04a4c"/>
  <path d="m411.79 181.04c-2.3086-1.6055-4.6797-3.1211-7.1445-4.4922-0.51562 0.61719-1.043 1.2305-1.6016 1.8125-5.8672 6.1211-14.168 9.8516-22.809 10.023-8.6289 0.21875-17.316-3.0938-23.629-9.2109-3.1289-3.0547-5.6836-6.7266-7.3945-10.773-1.707-4.0469-2.5898-8.4336-2.6172-12.844 0.0274-4.4258 0.91016-8.8125 2.6172-12.859 1.7109-4.0469 4.2656-7.7188 7.3945-10.773 6.3125-6.1172 15-9.4258 23.629-9.207 8.6406 0.16797 16.941 3.8984 22.809 10.02 0.90625 0.93359 1.7461 1.9258 2.5312 2.9609 3.8359-2.5547 7.6133-5.1953 11.582-7.5274l-1.0234-3.7266-2.2539-0.73047v0.61719c-0.39453-0.41797-0.76953-0.84766-1.1797-1.25-4.2891-4.207-9.4414-7.5039-15.004-9.6953-5.5586-2.207-11.547-3.2734-17.461-3.1758-5.9258 0.0977-11.84 1.3711-17.242 3.7227-5.418 2.3477-10.324 5.7773-14.422 9.9609-8.2031 8.3594-12.953 19.992-12.883 31.664-0.0703 11.656 4.6797 23.289 12.883 31.652 4.0976 4.1797 9.0039 7.6094 14.422 9.9609 5.4023 2.3516 11.316 3.6211 17.242 3.7188 5.9141 0.0977 11.902-0.96875 17.461-3.1758 5.5625-2.1914 10.715-5.4883 15.004-9.6914 1.2148-1.1953 2.3555-2.4609 3.4297-3.7812l-1.0234-3.7266-3.3164 0.52735" fill="#175175"/>
  <path d="m402.03 174.63c-5.8672 6.1172-14.168 9.8516-22.809 10.02-8.6289 0.21875-17.316-3.0898-23.629-9.207-3.1289-3.0547-5.6836-6.7266-7.3945-10.773-1.707-4.0469-2.5898-8.4336-2.6172-12.848 0.0273-4.4219 0.91015-8.8086 2.6172-12.855 1.7109-4.0469 4.2656-7.7188 7.3945-10.773 6.3125-6.1211 15-9.4258 23.629-9.2109 8.6406 0.17187 16.941 3.9023 22.809 10.023 0.90625 0.93359 1.75 1.9258 2.5312 2.9609 3.8359-2.5547 7.6133-5.1953 11.582-7.5273-1.3633-1.8008-2.8477-3.5078-4.457-5.0898-4.2891-4.207-9.4414-7.5039-15.004-9.6953-5.5586-2.207-11.547-3.2734-17.461-3.1758-5.9258 0.0977-11.84 1.3711-17.242 3.7188-5.418 2.3516-10.324 5.7812-14.422 9.9609-8.2031 8.3633-12.953 19.996-12.883 31.664-0.0703 11.66 4.6797 23.293 12.883 31.656 4.0976 4.1797 9.0039 7.6094 14.422 9.9609 5.4024 2.3477 11.316 3.6211 17.242 3.7188 5.9141 0.0977 11.902-0.96875 17.461-3.1758 5.5625-2.1914 10.715-5.4883 15.004-9.6953 1.2188-1.1914 2.3555-2.4609 3.4297-3.7774-3.6328-2.8555-7.4453-5.4453-11.484-7.6914-0.51563 0.61718-1.043 1.2305-1.6016 1.8125" fill="#2875a1"/>
  <path d="m363.06 159.19c-0.33594-1.2031-0.51953-2.4375-0.51172-3.6797-0.0195-3.1562 1.125-6.2734 3.1992-8.9023l-1.0234-3.7266-1.9453 2.0547-3.6875-2.0742c-1.0469 1.2578-1.9375 2.6094-2.6445 4.0352-1.3555 2.7188-2.0547 5.6719-2.0703 8.6133 0.0156 2.9453 0.71484 5.8984 2.0703 8.6133 0.60156 1.2031 1.332 2.3594 2.168 3.4453l6.8125-3.5781-1.0234-3.7266-1.3438-1.0742" fill="#c52828"/>
  <path d="m353.35 151.78c0.0156-2.9375 0.71484-5.8906 2.0703-8.6094 0.70703-1.4258 1.6016-2.7774 2.6445-4.0352l6.6562 3.7461c-2.0742 2.6289-3.2188 5.7461-3.1992 8.8984-0.0195 2.9922 1.0039 5.9492 2.8789 8.4844l-6.8125 3.5781c-0.83594-1.0859-1.5664-2.2422-2.168-3.4453-1.3555-2.7148-2.0547-5.668-2.0703-8.6172" fill="#f04a4c"/>
  <path d="m397.24 138.3c-2.2305-2.2773-4.9023-4.1484-7.8555-5.4297-2.9414-1.2774-6.1641-1.9727-9.3945-2.0234-3.2226-0.0547-6.4805 0.52734-9.5117 1.7305-1.793 0.70703-3.5039 1.625-5.0898 2.7344l-5.9766 0.87891 1.0234 3.7266c1.9805 1.5547 4.0586 2.9648 6.2578 4.1875 0.28125-0.33594 0.5664-0.66797 0.875-0.98437 3.1914-3.3359 7.7148-5.3711 12.422-5.4609 4.7031-0.12109 9.4336 1.6836 12.875 5.0156 1.7031 1.6641 3.0938 3.6641 4.0274 5.8711 0.92968 2.2031 1.4102 4.5938 1.4258 6.9961-0.0156 2.4102-0.4961 4.8008-1.4258 7.0039-0.9336 2.207-2.3242 4.207-4.0274 5.8711-3.4414 3.332-8.1719 5.1367-12.875 5.0156-4.707-0.0898-9.2305-2.125-12.422-5.457-0.4961-0.51172-0.95313-1.0508-1.3828-1.6172-0.82421 0.55078-1.6445 1.1055-2.4688 1.6562v-0.44531l-4.8633-0.83594 1.0234 3.7266c0.74219 0.98438 1.5508 1.9141 2.4297 2.7773 2.3359 2.2891 5.1406 4.0859 8.1719 5.2812 3.0312 1.1992 6.2891 1.7812 9.5117 1.7266 3.2305-0.0508 6.4531-0.7461 9.3945-2.0234 2.9531-1.2812 5.625-3.1523 7.8555-5.4297 4.4688-4.5547 7.0586-10.891 7.0195-17.25 0.0391-6.3516-2.5508-12.688-7.0195-17.242" fill="#14233a"/>
  <path d="m366.54 139.39c3.1914-3.3359 7.7148-5.3711 12.422-5.4609 4.6992-0.1211 9.4336 1.6836 12.875 5.0156 1.7031 1.6641 3.0938 3.6641 4.0274 5.8711 0.92969 2.2031 1.4102 4.5938 1.4258 6.9961-0.0156 2.4102-0.49609 4.8008-1.4258 7.0039-0.9336 2.207-2.3242 4.207-4.0274 5.8711-3.4414 3.332-8.1758 5.1367-12.875 5.0156-4.707-0.0937-9.2305-2.125-12.422-5.4609-0.49609-0.50782-0.95313-1.0469-1.3828-1.6133-2.0898 1.3945-4.1445 2.832-6.3086 4.1016 0.74219 0.98437 1.5508 1.9141 2.4297 2.7773 2.3359 2.2891 5.1406 4.0859 8.1719 5.2774 3.0312 1.2031 6.2891 1.7852 9.5117 1.7305 3.2305-0.0508 6.4492-0.74609 9.3945-2.0273 2.9531-1.2773 5.625-3.1484 7.8555-5.4258 4.4688-4.5547 7.0586-10.891 7.0195-17.25 0.0391-6.3516-2.5508-12.688-7.0195-17.242-2.2305-2.2773-4.9023-4.1484-7.8555-5.4297-2.9453-1.2773-6.1641-1.9726-9.3945-2.0234-3.2226-0.0547-6.4805 0.52734-9.5117 1.7305-3.0312 1.1914-5.8359 2.9883-8.1719 5.2812-0.66406 0.64843-1.2852 1.3398-1.8711 2.0586 1.9805 1.5547 4.0586 2.9648 6.2578 4.1875 0.28125-0.33594 0.56641-0.67188 0.875-0.98438" fill="#175175"/>
  <path d="m306.76 116.7-0.95312 0.77343c-6.3828 5.1602-14.238 8.0469-22.363 8.3438-1.5117 0.0664-3.0391 0.0391-4.5664-0.0859-16.949-1.3711-33.844-5.5586-49.465-11.457-1.5742-39.137 6.1367-78.625 22.348-114.27 21.094 16.922 50.609 25.113 77.566 22.926-6.0898 20.453-8.9062 41.887-8.5195 63.254 0.043 2.1836-0.10156 4.3477-0.42188 6.4727-1.375 9.3828-6.1211 18.004-13.625 24.043" fill="#d4f0fa"/>
  <path d="m306.76 116.7-0.95312 0.77343c-6.3828 5.1602-14.238 8.0469-22.363 8.3438 2.6758-0.9375 5.0664-2.7031 6.6133-5.0703 2.7226-4.1289 2.7461-9.8633 0.0703-14.02 7.1953-0.0352 14.359-0.58203 20.668-4.0273 4.1094-2.2617 7.6562-5.832 9.5898-10.043-1.375 9.3828-6.1211 18.004-13.625 24.043" fill="#b8e3f8"/>
 </g>
 <g fill="#73b8e8">
  <path d="m307.06 64.187c-13.371-0.85938-26.629-3.1016-39.555-6.6328-1.793-0.48828-2.3867 2.3359-0.59766 2.8242 13.18 3.5977 26.672 5.8164 40.305 6.6875 1.8477 0.12109 1.6836-2.7617-0.15234-2.8789"/>
  <path d="m284.23 67.508c-5.8359-0.85547-11.613-2.0352-17.316-3.5352-1.793-0.47266-2.3867 2.3477-0.59375 2.8203 5.7031 1.5039 11.48 2.6836 17.312 3.5391 1.8242 0.26562 2.4375-2.5547 0.59766-2.8242"/>
  <path d="m244.36 62.465c1.1562-4.3867 2.3125-8.7695 3.4727-13.156 3.7461 1.0039 7.4336 2.2109 11.047 3.6172-0.9375 4.5078-1.7031 9.0508-2.3086 13.613zm13.512 5.125c0.63281-4.9297 1.4609-9.832 2.4844-14.695v-0.04297c0.23046-0.33203 0.23046-0.80078-0.2461-0.99219-3.9961-1.582-8.0781-2.9297-12.23-4.0352-0.35547-0.32422-1.0703-0.28516-1.2344 0.33594-1.2539 4.75-2.5078 9.5039-3.7617 14.258l-0.0117 0.21094c-0.12109 0.36719 0 0.85156 0.47266 1.0078 4.4922 1.5 8.9805 3 13.473 4.4961 0.15235 0.05078 0.27735 0.03906 0.39063 0.0039 0.30859 0.01563 0.60937-0.14453 0.66406-0.54687"/>
  <path d="m286.86 88.043c-8.3789-0.39453-16.672-1.7656-24.73-4.0898-1.7773-0.51172-2.2188 2.3398-0.45313 2.8516 8.0586 2.3203 16.355 3.6914 24.73 4.0898 1.832 0.0859 2.3086-2.7617 0.45313-2.8516"/>
  <path d="m305.32 96.598c-14.43 0.37109-28.82-1.3086-42.785-4.9609-1.7969-0.46875-2.3945 2.3555-0.59765 2.8242 14.195 3.7109 28.863 5.3906 43.531 5.0195 1.8555-0.0469 1.7109-2.9297-0.14844-2.8828"/>
  <path d="m239.65 90.355c1.1562-4.3867 2.3125-8.7734 3.4688-13.16 3.7461 1.0078 7.4336 2.2109 11.051 3.6211-0.9414 4.5078-1.707 9.0508-2.3086 13.613zm13.508 5.1211c0.63282-4.9258 1.4609-9.8281 2.4844-14.695v-0.043c0.23437-0.32813 0.23437-0.80079-0.24219-0.98829-3.9961-1.582-8.0781-2.9336-12.234-4.0352-0.35157-0.32813-1.0703-0.28906-1.2305 0.33203-1.2578 4.7539-2.5117 9.5078-3.7617 14.262l-0.0117 0.21094c-0.12109 0.36718 0 0.85156 0.47266 1.0078 4.4922 1.5 8.9805 2.9961 13.473 4.4961 0.14844 0.0508 0.27735 0.0352 0.39063 0 0.30859 0.0156 0.60937-0.14062 0.66015-0.54687"/>
  <path d="m286.88 32.148c0.15234-0.73438-0.34375-1.5859-1.1172-1.7109-3.6445-0.57422-7.2578-1.4609-10.734-2.7148-0.73047-0.26172-1.5508-0.13672-1.9414 0.62109-0.32422 0.62109-0.12109 1.6758 0.61719 1.9414 3.7305 1.3438 7.5469 2.3594 11.465 2.9766 0.76953 0.12109 1.543-0.32422 1.7109-1.1133"/>
  <path d="m314.46 41.668c-14.145-0.875-28.133-3.5781-41.609-7.957-1.7617-0.57422-2.3476 2.2539-0.59375 2.8242 13.73 4.4609 27.949 7.125 42.355 8.0156 1.8477 0.11328 1.6875-2.7695-0.15234-2.8828"/>
  <path d="m296.36 46.105c-8.1836-1.332-16.254-3.25-24.16-5.7422-1.7695-0.55469-2.3555 2.2695-0.59766 2.8242 7.9102 2.4883 15.98 4.4062 24.164 5.7422 1.8242 0.29688 2.4336-2.5234 0.59375-2.8242"/>
  <path d="m249.86 34.832c1.1562-4.3867 2.3125-8.7734 3.4688-13.16 3.75 1.0039 7.4336 2.2109 11.051 3.6211-0.94141 4.5078-1.707 9.0469-2.3086 13.613zm13.512 5.1211c0.6289-4.9297 1.457-9.832 2.4805-14.695v-0.04297c0.23437-0.32813 0.23437-0.80078-0.24219-0.98828-3.9961-1.582-8.0781-2.9336-12.23-4.0352-0.35547-0.32812-1.0703-0.28906-1.2344 0.33203-1.2539 4.7539-2.5078 9.5078-3.7617 14.258l-0.0117 0.21094c-0.1211 0.36719 0 0.85156 0.47265 1.0117 4.4922 1.4961 8.9805 2.9961 13.473 4.4961 0.14844 0.05078 0.27734 0.03516 0.39062 0 0.3125 0.01563 0.60938-0.14062 0.66407-0.54688"/>
 </g>
 <g>
  <path d="m269.3 21.469c-3.4219 3.2305-6.8438 6.4648-10.27 9.6953-0.40625 0.38672-0.8125 0.76953-1.2188 1.1562-0.13672 0.12891-0.34766 0.29297-0.5 0.45703-0.27344-0.35938-0.84766-0.94531-0.94141-1.0586-0.34766-0.42578-0.69922-0.85547-1.0469-1.2812-1.5-1.8359-3-3.6719-4.5-5.5078-0.4961-0.60156-1.2774-0.89844-1.9922-0.44531-0.59766 0.375-0.94141 1.3828-0.44531 1.9883 1.7109 2.0938 3.418 4.1875 5.1289 6.2773 0.45313 0.55469 0.90625 1.1133 1.3594 1.6641 0.39843 0.48438 0.77343 1.0195 1.3516 1.2969 1.2695 0.61328 2.3125-0.12891 3.2148-0.97266 4.0039-3.7539 7.9844-7.543 11.98-11.312 1.3516-1.2773-0.77734-3.2266-2.1211-1.957" fill="#f04a4c"/>
  <path d="m90.481 64.098c-0.0039-2.3086-3.5938-2.3125-3.5898 0 0.0625 29.402 0.125 58.801 0.19141 88.199 0.0039 2.3125 3.5938 2.3164 3.5898 0-0.0625-29.398-0.125-58.797-0.19141-88.199" fill="#14233a"/>
  <path d="m190.79 143.92c-37.453-0.34765-74.906-0.69921-112.36-1.0508-2.3086-0.0195-2.3125 3.5703 0 3.5938 37.453 0.34766 74.906 0.69922 112.36 1.0469 2.3125 0.0234 2.3164-3.5664 0-3.5898" fill="#14233a"/>
  <path d="m99.97 133.18-0.95703-21.691c-0.07813-1.7891 1.3516-3.2852 3.1445-3.2852h7.9297c1.9531 0 3.4375 1.7578 3.1016 3.6836l-3.7461 21.691c-0.26172 1.5078-1.5703 2.6094-3.1016 2.6094h-3.2266c-1.6836 0-3.0703-1.3242-3.1445-3.0078" fill="#f04a4c"/>
  <path d="m120.52 133.13-1.1875-41.406c-0.0469-1.7734 1.375-3.2383 3.1484-3.2383h8.7148c1.8359 0 3.2852 1.5664 3.1367 3.3984l-3.2812 41.406c-0.13281 1.6367-1.4961 2.8984-3.1406 2.8984h-4.2422c-1.7031 0-3.0977-1.3555-3.1484-3.0586" fill="#f8a142"/>
  <path d="m142.55 132.81 0.74218-56.828c0.0195-1.7227 1.4219-3.1055 3.1445-3.1055h9.4922c1.9102 0 3.3789 1.6836 3.1211 3.5742l-7.8086 56.734c-0.21094 1.5156-1.4726 2.6602-2.9961 2.7188l-2.4258 0.0937c-1.8008 0.0703-3.293-1.3828-3.2695-3.1875" fill="#4a9ccc"/>
  <path d="m165.01 132.93 2.3008-67.523c0.0547-1.6953 1.4492-3.0391 3.1445-3.0391h10.969c1.9023 0 3.3672 1.6719 3.1211 3.5547l-8.8633 67.523c-0.20703 1.5664-1.543 2.7383-3.1211 2.7383h-4.4023c-1.7812 0-3.207-1.4766-3.1484-3.2539" fill="#14233a"/>
  <path d="m334.17 215.13-2.2422 3.3008c-0.66406 0.97266-2.0039 1.1953-2.9453 0.48438l-20.68-15.586c-0.875-0.66406-1.082-1.8945-0.46485-2.8047l0.8125-1.1953c0.6211-0.91016 1.8398-1.1719 2.7774-0.60156l22.109 13.484c1.0039 0.61328 1.293 1.9453 0.63282 2.918" fill="#4a9ccc"/>
  <path d="m371.87 238.78-4.0703 5.9883c-1.1992 1.7695-3.6367 2.1719-5.3438 0.88282l-37.516-28.285c-1.5938-1.1992-1.9648-3.4336-0.84375-5.0859l1.4766-2.168c1.1211-1.6484 3.3359-2.1289 5.0391-1.0898l40.113 24.465c1.8242 1.1133 2.3438 3.5274 1.1445 5.293" fill="#14233a"/>
  <path d="m252.81 158.04c-9.9883 14.699-6.1562 34.785 8.543 44.777 14.699 9.9883 34.789 6.1562 44.777-8.5469 9.9883-14.699 6.1562-34.785-8.5469-44.773-14.699-9.9922-34.785-6.1602-44.773 8.543m59.715 40.578c-12.387 18.227-37.289 22.98-55.516 10.594-18.23-12.387-22.98-37.293-10.594-55.52 12.383-18.227 37.289-22.977 55.516-10.594 18.227 12.387 22.98 37.293 10.594 55.52" fill="#4a9ccc"/>
  <path d="m249.99 162.2c-9.9883 14.703-6.1562 34.789 8.543 44.777 14.703 9.9922 34.789 6.1562 44.777-8.543 9.9883-14.703 6.1562-34.789-8.5469-44.777-14.699-9.9883-34.785-6.1562-44.773 8.543m59.977 40.758c-12.48 18.371-37.586 23.164-55.957 10.68-18.375-12.484-23.164-37.586-10.68-55.961 12.484-18.371 37.586-23.16 55.961-10.676 18.371 12.484 23.16 37.586 10.676 55.957" fill="#2875a1"/>
  <path d="m248.56 167.02c0.67188-2.2812 1.6094-4.5195 2.8164-6.6641 1.6484-2.0938 3.5234-3.9375 5.5469-5.5039 3.6094-2.8047 7.7539-4.7656 12.109-5.8242 1.9414-0.46875 3.9297-0.76172 5.9297-0.86719 0.625-0.0352 1.2539-0.0547 1.8828-0.0547 0.76172 0 1.5273 0.0273 2.293 0.082-0.76563-0.0547-1.5312-0.082-2.293-0.082-0.62891 0-1.2578 0.0195-1.8828 0.0547l3.4844 18.258-6.0742 0.1211-3.3398-17.512c-4.3555 1.0586-8.5 3.0195-12.109 5.8242l2.2812 11.953-10.645 0.21484" fill="#bae3f0"/>
  <path d="m247.25 176.42c-0.0234-2.4688 0.23437-4.9453 0.78515-7.3867l11.547-0.23047 1.4062 7.3672-10.602 0.19141-3.1367 0.0586m26.914-0.49219-1.4102-7.3906 6.0703-0.125 1.4141 7.4102-6.0742 0.10546" fill="#428fb3"/>
  <path d="m248.04 169.03c0.15235-0.67187 0.32813-1.3438 0.52344-2.0117l10.645-0.21484 0.37891 1.9961-11.547 0.23047m24.719-0.49609-0.38281-1.9961 6.0742-0.1211 0.37891 1.9922-6.0703 0.125" fill="#63b3d9"/>
  <path d="m280.35 208.36-3.2852-17.227 5.1172-5.1211 4.1289 21.621c-1.957 0.42578-3.9531 0.66797-5.9609 0.72656m-13.723-2.6406c-0.9414-0.41016-1.8672-0.86719-2.7773-1.3711l2.1094-2.1133 0.66797 3.4844m-13.27-10.672c-3.3633-4.6562-5.3867-10.102-5.9492-15.715l2.9766-2.9766-3.1367 0.0586 3.1367-0.0586 10.602-0.19141 1.8047 9.4492-9.4336 9.4336" fill="#def3fd"/>
  <path d="m247.41 179.34c-0.0976-0.96875-0.14843-1.9414-0.16015-2.918l3.1367-0.0586-2.9766 2.9766" fill="#f0fafd"/>
  <path d="m263.85 204.35c-0.84766-0.46875-1.6797-0.98438-2.4961-1.5352-0.28907-0.19922-0.57422-0.39844-0.85547-0.60156 0.7539-1.3672 0.1289-3.5078-1.8789-3.5078h-0.043c-0.70312 0.0117-1.4062 0.0195-2.1094 0.0312-1.1406-1.1602-2.1758-2.3906-3.1094-3.6875l9.4336-9.4336 3.168 16.621-2.1094 2.1133m13.215-13.215-2.9023-15.211 6.0742-0.10546 1.9453 10.195-5.1172 5.1211" fill="#f0fafd"/>
  <path d="m260.5 202.21c-1.4609-1.0625-2.8047-2.2266-4.0312-3.4766 0.70312-0.0117 1.4062-0.0195 2.1094-0.0312h0.043c2.0078 0 2.6328 2.1406 1.8789 3.5078" fill="#cae8f8"/>
  <path d="m285.02 166.29-3.4024-17.812c1.4297 0.22266 2.8516 0.53906 4.2539 0.95703 3.082 0.92188 6.0781 2.3203 8.8828 4.2266 4.7188 3.207 8.3086 7.4492 10.684 12.219l-20.418 0.41016" fill="#bae3f0"/>
  <path d="m286.82 175.7-1.418-7.4219 20.945-0.42187c0.99609 2.3945 1.6992 4.8984 2.0976 7.4492l-15.84 0.28906-5.7852 0.10547" fill="#428fb3"/>
  <path d="m285.4 168.28-0.3789-1.9961 20.418-0.41016c0.32422 0.65235 0.625 1.3125 0.90625 1.9844l-20.945 0.42187" fill="#63b3d9"/>
  <path d="m295.77 203.92h-3.5664l-4.4727-23.441 4.875-4.8789-5.7852 0.10547 21.625-0.39453c0.51563 3.3008 0.52735 6.6836 8e-3 10.02-0.86719 3.6094-2.3594 7.1328-4.5703 10.387-2.2422 3.3008-5.0078 6.0547-8.1133 8.2031" fill="#def3fd"/>
  <path d="m292.53 205.62-0.32421-1.6992h3.5664c-0.13672 0.0937-0.27344 0.1875-0.41015 0.28125-0.92188 0.51953-1.8672 0.99219-2.832 1.418" fill="#1e4566"/>
  <path d="m287.73 180.48-0.91016-4.7734 5.7852-0.10547-4.875 4.8789" fill="#f0fafd"/>
  <path d="m280.56 209.46-0.21094-1.1016c2.0078-0.0586 4.0039-0.30078 5.9609-0.72656l0.13281 0.70703c-1.9141 0.56641-3.8867 0.92969-5.8828 1.1211m-13.543-1.6953c-2.5-0.875-4.9219-2.0976-7.2148-3.6562-14.023-9.5273-17.949-28.301-9.2695-42.641 0.27344-0.37891 0.55078-0.75 0.83985-1.1172-1.207 2.1445-2.1445 4.3828-2.8164 6.6641-0.19531 0.66797-0.37109 1.3398-0.52344 2.0117-0.55078 2.4414-0.80859 4.918-0.78515 7.3867 0.0117 0.97656 0.0625 1.9492 0.16015 2.918 0.5625 5.6133 2.5859 11.059 5.9492 15.715 0.9336 1.2969 1.9688 2.5274 3.1094 3.6875 1.2266 1.25 2.5703 2.4141 4.0312 3.4766 0.28125 0.20312 0.5664 0.40234 0.85547 0.60156 0.8164 0.55078 1.6484 1.0664 2.4961 1.5352 0.91016 0.5039 1.8359 0.96093 2.7773 1.3711l0.39063 2.0469m25.551-1.9102-0.0469-0.24219c0.96485-0.42578 1.9102-0.89844 2.832-1.418-0.90235 0.60547-1.832 1.1562-2.7852 1.6602" fill="#63b3d9"/>
  <path d="m285.87 149.43c-1.4023-0.41797-2.8242-0.73437-4.2539-0.95703v-8e-3c-0.82421-0.125-1.6523-0.21875-2.4805-0.27735 0.82812 0.0586 1.6562 0.15235 2.4805 0.27735 1.4297 0.22656 2.8516 0.54687 4.2539 0.96484" fill="#428fb3"/>
  <path d="m259.2 166.8-2.2812-11.953c3.6094-2.8047 7.7539-4.7656 12.109-5.8242l3.3398 17.512-13.168 0.26562" fill="#c7e8f3"/>
  <path d="m260.99 176.17-1.4062-7.3672 13.172-0.26562 1.4102 7.3906-1.7109 0.0312-11.465 0.21094" fill="#59a3bf"/>
  <path d="m259.58 168.8-0.37891-1.9961 13.168-0.26562 0.38281 1.9961-13.172 0.26562" fill="#7abfde"/>
  <path d="m279.42 208.37c-4.3242 0-8.6836-0.86328-12.793-2.6523l-0.66797-3.4844 11.105-11.102 3.2852 17.227c-0.30859 8e-3 -0.61719 0.0117-0.92969 0.0117m-16.629-22.758-1.8047-9.4492 11.465-0.21094 1.7109-0.0312-1.7109 0.0312-9.6602 9.6602" fill="#e3f5fd"/>
  <path d="m265.96 202.24-3.168-16.621 9.6602-9.6602 1.7109-0.0312 2.9023 15.211-11.105 11.102" fill="#f3fafd"/>
  <path d="m277.61 209.6c-3.5625 0-7.1406-0.60157-10.594-1.832l-0.39063-2.0469c4.1094 1.7891 8.4688 2.6523 12.793 2.6523 0.3125 0 0.6211-4e-3 0.92969-0.0117l0.21094 1.1016c-0.98047 0.0898-1.9648 0.13672-2.9492 0.13672" fill="#7abfde"/>
  <path d="m278.45 166.42-3.4844-18.258c0.625-0.0352 1.2539-0.0547 1.8828-0.0547 0.76172 0 1.5273 0.0273 2.293 0.082 0.82812 0.0625 1.6562 0.15625 2.4805 0.28516l3.4024 17.812-6.5742 0.13281" fill="#c7e8f3"/>
  <path d="m280.24 175.82-1.4141-7.4102 6.5742-0.12891 1.418 7.4219-6.5781 0.11719" fill="#59a3bf"/>
  <path d="m278.83 168.41-0.37891-1.9922 6.5742-0.13281 0.3789 1.9961-6.5742 0.12891" fill="#7abfde"/>
  <path d="m286.31 207.64-4.1289-21.621 5.543-5.5391 4.4727 23.441h-2.1094c-1.1055 0-1.9375 0.42578-2.0039 1.0234l-0.26171 2.332c-0.5 0.13281-1.0078 0.25391-1.5117 0.36328" fill="#e3f5fd"/>
  <path d="m287.83 207.27 0.26171-2.332c0.0664-0.59766 0.89844-1.0234 2.0039-1.0234h2.1094l0.32421 1.6992c-1.5234 0.67188-3.0976 1.2266-4.6992 1.6562" fill="#355e7d"/>
  <path d="m282.19 186.02-1.9453-10.195 6.5781-0.11719 0.91016 4.7734-5.543 5.5391" fill="#f3fafd"/>
  <path d="m286.45 208.34-0.13281-0.70703c0.5039-0.10937 1.0117-0.23047 1.5117-0.36328 1.6016-0.42969 3.1758-0.98437 4.6992-1.6562l0.0469 0.24219c-1.9414 1.0508-3.9922 1.8828-6.125 2.4844" fill="#7abfde"/>
  <path d="m281.62 148.47c-0.82421-0.12891-1.6523-0.22266-2.4805-0.28516 0.82812 0.0586 1.6562 0.15235 2.4805 0.27735v8e-3" fill="#59a3bf"/>
  <path d="m98.49 168.34c-1.4258 0.85547-2.8555 1.7188-4.2774 2.5938l0.52344 0.85156c1.4219-0.875 2.8438-1.7344 4.2695-2.5898zm-8.5195 5.2617c-1.4062 0.90234-2.8047 1.8203-4.1836 2.7617l0.5625 0.82813c1.3711-0.9375 2.7617-1.8516 4.1602-2.75zm-8.2812 5.6602c-1.3516 0.99219-2.6797 2.0117-3.9844 3.0586l0.62891 0.77734c1.2891-1.0352 2.6094-2.0469 3.9492-3.0312zm-7.8164 6.3086c-1.25 1.1211-2.4648 2.2734-3.6445 3.4688l0.71484 0.70312c1.1602-1.1797 2.3594-2.3203 3.5977-3.4258zm-7.0508 7.1719c-1.0352 1.207-2.0234 2.4531-2.9727 3.7461l-0.15234 0.20704 0.8125 0.58593 0.14844-0.20312c0.92969-1.2695 1.9063-2.4961 2.9219-3.6836zm-5.8086 8.2461c-0.77734 1.4219-1.5117 2.9453-2.1953 4.543l0.91797 0.39453c0.67188-1.5703 1.3945-3.0664 2.1562-4.457zm-3.9805 9.2617c-0.51953 1.5781-0.98828 3.1992-1.3867 4.8438l0.97266 0.23438c0.39062-1.6172 0.85156-3.2109 1.3633-4.7656zm-2.3633 9.793c-0.25391 1.6758-0.42969 3.3555-0.51953 5.0195l1 0.0547c0.08594-1.6328 0.25781-3.2812 0.50781-4.9258zm-0.49609 10.078c0.11328 1.7188 0.33984 3.3984 0.69141 5.0234l0.97656-0.21484c-0.33984-1.5703-0.55859-3.2031-0.66797-4.875zm2.2188 9.875c0.67969 1.5781 1.5195 3.0664 2.5391 4.4297l0.80078-0.60156c-0.96875-1.293-1.7695-2.707-2.418-4.2226zm6.1172 8.082c1.2969 1.0078 2.7617 1.8789 4.4023 2.5898l0.39844-0.91797c-1.5664-0.67578-2.957-1.5039-4.1836-2.4609zm9.2695 4.1094c1.2461 0.2461 2.4219 0.36328 3.5352 0.36328 0.54297 0 1.0742-0.0312 1.5898-0.0859l-0.10937-0.99219c-0.47657 0.0508-0.96875 0.0781-1.4805 0.0781-1.043 0-2.1562-0.10937-3.3398-0.34375zm10.043-1.3047c1.543-0.90235 2.7969-2.1328 3.7578-3.5625l-0.83203-0.55469c-0.88281 1.3125-2.0273 2.4297-3.4297 3.2578zm5.7656-8.3086c0.26171-1.1602 0.39062-2.3594 0.39062-3.5703 0-0.51953-0.0234-1.0352-0.0703-1.5547l-0.9961 0.0899c0.0469 0.48828 0.0664 0.97656 0.0664 1.4648 0 1.1367-0.12109 2.2656-0.36719 3.3516zm-0.9336-10.105c-0.67578-1.5742-1.6133-3.0469-2.8086-4.3125l-0.72656 0.6875c1.1094 1.1758 1.9805 2.543 2.6172 4.0195zm-7-7.3203c-1.4648-0.67578-3.1289-1.1289-4.9726-1.2969l-0.0898 0.99609c1.7383 0.16016 3.2852 0.58203 4.6445 1.2109zm-10.078-1.0781c-0.53907 0.0859-1.0859 0.19531-1.6445 0.32421-1.125 0.25782-2.2148 0.56641-3.2734 0.91797l0.31641 0.94922c1.0273-0.34375 2.0898-0.64062 3.1836-0.89453 0.53906-0.125 1.0625-0.22656 1.5781-0.3125zm-9.5898 3.1953c-1.5273 0.77734-2.9688 1.6602-4.3281 2.6328l0.58203 0.81641c1.3203-0.94532 2.7188-1.8047 4.2031-2.5586zm-8.2188 5.875c-1.2109 1.1719-2.3438 2.4219-3.3984 3.7422l0.78125 0.625c1.0273-1.2891 2.1328-2.5078 3.3125-3.6445zm-6.3086 7.875c-0.88672 1.418-1.6992 2.8945-2.4492 4.4141l0.89844 0.44141c0.73437-1.4922 1.5312-2.9375 2.3984-4.3281zm-4.4688 9.0312c-0.60156 1.5586-1.1484 3.1484-1.6367 4.7656l0.95703 0.28907c0.48438-1.5898 1.0195-3.1602 1.6133-4.6914zm-2.9297 9.6289c-0.37891 1.6367-0.70703 3.2852-0.98438 4.9375l0.98438 0.16407c0.27734-1.6328 0.59766-3.2617 0.97266-4.875zm-1.6836 9.918c-0.1875 1.6797-0.32813 3.3516-0.42969 5.0078l1 0.0625c0.09766-1.6406 0.23828-3.2969 0.42578-4.9609zm-0.60156 10.035c-0.0039 0.29687-0.0039 0.59375-0.0039 0.88672 0 0.98437 0.01563 1.9609 0.04297 2.918 0.01172 0.41015 0.02734 0.8125 0.04687 1.2188l0.99609-0.043c-0.01563-0.40235-0.03125-0.80078-0.04297-1.2031-0.02734-0.95312-0.04297-1.9141-0.04297-2.8906 0-0.29297 0-0.58594 0.0039-0.87891zm0.44531 10.035c0.17187 1.6836 0.39453 3.3438 0.66016 4.9844l0.98438-0.16016c-0.26172-1.6211-0.48047-3.2617-0.64844-4.9258zm1.6172 9.918c0.37109 1.6484 0.79297 3.2695 1.2617 4.8672l0.96094-0.28125c-0.46484-1.5742-0.87891-3.1797-1.2461-4.8047zm2.8281 9.6445c0.57812 1.5859 1.2031 3.1406 1.8711 4.668l0.91797-0.39843c-0.66406-1.5117-1.2773-3.0469-1.8477-4.6094zm4.0391 9.207c0.77344 1.4961 1.5938 2.9609 2.457 4.3945l0.85547-0.51563c-0.85156-1.418-1.6602-2.8633-2.4258-4.3359zm5.1914 8.6211c0.95703 1.3789 1.957 2.7227 2.9961 4.0391l0.78516-0.62109c-1.0273-1.2969-2.0156-2.6289-2.9609-3.9883zm6.2383 7.8828c1.1172 1.2461 2.2734 2.457 3.4688 3.6367l0.70312-0.71484c-1.1797-1.1641-2.3242-2.3594-3.4297-3.5898zm7.1484 7.0547c1.2578 1.1016 2.5508 2.1641 3.875 3.1953l0.61719-0.78906c-1.3125-1.0195-2.5898-2.0703-3.832-3.1602zm7.9258 6.1641c1.375 0.94532 2.7773 1.8594 4.207 2.7344l0.52344-0.85547c-1.418-0.86328-2.8047-1.7656-4.1602-2.7031zm8.5664 5.2383c1.4688 0.79297 2.9609 1.5508 4.4805 2.2695l0.42969-0.90235c-1.5039-0.71094-2.9844-1.4609-4.4375-2.2461zm9.0742 4.3047c1.543 0.64063 3.1055 1.2383 4.6914 1.8008l0.33594-0.9414c-1.5703-0.5586-3.1172-1.1524-4.6445-1.7812l-0.38282 0.92578zm9.4648 3.3711c1.5938 0.48046 3.2109 0.92578 4.8398 1.332l0.24609-0.96875c-1.6172-0.40625-3.2188-0.84375-4.7969-1.3242zm9.7383 2.4375c1.6406 0.33593 3.2812 0.64843 4.9258 0.9414l0.17578-0.98047c-1.6367-0.29297-3.2695-0.60547-4.8984-0.9414zm9.8672 1.7695c1.6523 0.2539 3.3086 0.49218 4.9609 0.70703l0.13282-0.99219c-1.6484-0.21484-3.2969-0.44922-4.9375-0.70312zm9.9375 1.3008c1.6602 0.18359 3.3242 0.33984 4.9883 0.48437l0.0859-0.99609c-1.6562-0.14063-3.3125-0.30078-4.9648-0.48047zm9.9844 0.85547c1.668 0.10547 3.3359 0.1914 5.0039 0.25781l0.043-0.99609c-1.6602-0.0703-3.3203-0.15625-4.9805-0.26172zm10.016 0.41406c1.5859 0.0312 3.1719 0.0469 4.7578 0.0469h0.25v-1h-0.25c-1.5781 0-3.1602-0.0156-4.7383-0.0469zm10.02-0.0117c1.668-0.0352 3.3359-0.0898 5.0039-0.15625l-0.0391-1c-1.6641 0.0664-3.3242 0.12109-4.9883 0.15625zm10.008-0.41797c1.668-0.10156 3.332-0.21875 4.9961-0.35547l-0.0781-0.99609c-1.6602 0.13672-3.3203 0.25391-4.9766 0.35547zm9.9844-0.80469c1.6641-0.16406 3.3242-0.34765 4.9805-0.54296l-0.11718-0.99219c-1.6524 0.19531-3.3086 0.375-4.9609 0.53906zm9.9492-1.1758c1.6524-0.22656 3.3047-0.46875 4.957-0.72265l-0.15625-0.98828c-1.6445 0.2539-3.2891 0.49218-4.9375 0.71875zm9.8984-1.5352c1.6445-0.28125 3.2852-0.58203 4.9258-0.89063l-0.1875-0.98437c-1.6328 0.3125-3.2695 0.60937-4.9102 0.89062zm9.8398-1.8672c1.6328-0.33984 3.2656-0.69141 4.8945-1.0547l-0.21875-0.97656c-1.625 0.36328-3.25 0.71484-4.8789 1.0508zm9.7734-2.1875c1.6211-0.39453 3.2422-0.79688 4.8594-1.2109l-0.25-0.96875c-1.6133 0.41406-3.2266 0.81641-4.8438 1.2031zm9.6992-2.4961c1.6094-0.44141 3.2148-0.89063 4.8203-1.3555l-0.27734-0.96094c-1.6016 0.46094-3.2031 0.91406-4.8086 1.3516zm9.6211-2.7812c1.5977-0.48829 3.1875-0.98829 4.7774-1.4961l-0.30469-0.95312c-1.5859 0.50781-3.1719 1.0039-4.7656 1.4922zm9.5352-3.0586c1.582-0.53125 3.1641-1.0742 4.7383-1.6289l-0.33203-0.94532c-1.5703 0.55469-3.1445 1.0938-4.7227 1.625zm9.4492-3.3203c1.5703-0.57813 3.1328-1.1602 4.6914-1.7539l-0.35547-0.9375c-1.5547 0.59375-3.1133 1.1797-4.6797 1.75zm9.3555-3.5703c1.5508-0.61328 3.0976-1.2422 4.6406-1.8789l-0.38281-0.92578c-1.5391 0.63672-3.082 1.2617-4.625 1.875zm9.2578-3.8086c1.5352-0.65234 3.0664-1.3086 4.5977-1.9688l-0.39453-0.91797c-1.5312 0.66016-3.0625 1.3164-4.5938 1.9648zm9.1836-3.9648c1.5274-0.66797 3.0547-1.3359 4.582-2.0078l-0.40235-0.91407c-1.5273 0.66797-3.0508 1.3398-4.5781 2.0039zm9.1641-4.0117c1.5273-0.66797 3.0547-1.3281 4.5859-1.9883l-0.39843-0.91797c-1.5312 0.66016-3.0586 1.3242-4.5898 1.9883zm9.1797-3.9492c1.5391-0.64844 3.0742-1.2891 4.6133-1.9219l-0.37891-0.92578c-1.543 0.63281-3.082 1.2773-4.6211 1.9258zm9.2461-3.7852c1.5508-0.60938 3.1055-1.207 4.6602-1.793l-0.35156-0.9375c-1.5625 0.58593-3.1172 1.1875-4.6719 1.8008zm9.3516-3.5c1.5703-0.5586 3.1445-1.0938 4.7227-1.6094l-0.3125-0.95312c-1.5859 0.52343-3.168 1.0625-4.7422 1.6172zm9.4805-3.1055c1.5938-0.47657 3.1914-0.92969 4.7969-1.3594l-0.25781-0.96484c-1.6133 0.43359-3.2226 0.89062-4.8242 1.3672zm9.6328-2.5703c1.6133-0.3789 3.2383-0.72656 4.8672-1.0508l-0.19141-0.98047c-1.6445 0.32422-3.2773 0.67579-4.9062 1.0547zm9.7695-1.9141c1.6367-0.25781 3.2774-0.48437 4.9297-0.67187l-0.11328-0.9961c-1.6641 0.19141-3.3242 0.41797-4.9727 0.67969zm9.8828-1.125c1.4609-0.0937 2.9375-0.14062 4.4219-0.14062h0.53906l8e-3 -1h-0.54688c-1.5039 0-3.0039 0.0469-4.4844 0.14062zm9.9141 0.0937c1.6562 0.14453 3.2969 0.36328 4.9102 0.66016l0.17969-0.98047c-1.6445-0.30469-3.3164-0.52734-5-0.67578zm9.7109 1.8281c1.5938 0.48437 3.1328 1.0703 4.6055 1.7578l0.42188-0.90625c-1.5195-0.71094-3.1016-1.3086-4.7344-1.8086zm8.8672 4.1953c1.3398 0.92578 2.5938 1.9766 3.7422 3.1523l0.71484-0.69922c-1.1953-1.2226-2.5-2.3125-3.8867-3.2773zm6.7812 6.9805c0.87891 1.3906 1.5977 2.8594 2.1602 4.3828l0.9375-0.34766c-0.58594-1.5859-1.3359-3.1172-2.2539-4.5703zm3.3906 9.1172c0.23047 1.457 0.34765 2.9375 0.34765 4.4258 0 0.15625-4e-3 0.3125-8e-3 0.46875l1 0.0156c4e-3 -0.16015 8e-3 -0.32031 8e-3 -0.48437 0-1.5391-0.12109-3.0742-0.35937-4.582zm-0.12891 9.7891c-0.28515 1.6094-0.6914 3.207-1.2109 4.7695l0.94532 0.31641c0.53906-1.6094 0.95703-3.2539 1.25-4.9141zm-3.1055 9.3125c-0.74218 1.4688-1.5898 2.8828-2.5352 4.2188l0.8164 0.57812c0.97266-1.3789 1.8477-2.832 2.6094-4.3438zm-5.6836 8c-1.1484 1.1914-2.3711 2.293-3.6523 3.3164l0.625 0.78125c1.3125-1.0508 2.5664-2.1797 3.7461-3.3984zm-7.6875 6.1602c-1.3945 0.8711-2.8438 1.6602-4.332 2.3789l0.43359 0.90234c1.5195-0.73437 3-1.543 4.4258-2.4297zm-8.8906 4.3086c-1.5273 0.5664-3.082 1.0625-4.6641 1.5l0.26953 0.96484c1.6016-0.44531 3.1875-0.95312 4.7383-1.5234l-0.34375-0.9414" fill="#d4f0fa"/>
 </g>
</svg>
