<svg width="61.496mm" height="9.5145mm" version="1.1" viewBox="0 0 61.496 9.5145" xmlns="http://www.w3.org/2000/svg" xmlns:xlink="http://www.w3.org/1999/xlink">
 <g transform="translate(-118.44 -122.23)">
  <a transform="translate(-.29428)" onclick="" onmouseout='style="opacity:1"' onmouseover='style="opacity:0.6"' target="_blank" xlink:href="https://www.instagram.com/gidas.utn.frlp/?hl=es" xlink:title="Seguinos en Instagram">
   <g>
    <path d="m136.49 122.23c-2.6265 0-4.7576 2.1292-4.7576 4.7567 0 2.6274 2.1311 4.7576 4.7576 4.7576 2.6274 0 4.7576-2.1302 4.7576-4.7576 0-2.6274-2.1301-4.7567-4.7576-4.7567" fill="#fff" fill-rule="evenodd"/>
    <g transform="translate(-.00739 .00111)" fill="#f00">
     <path d="m136.5 125.98c-0.55005 0-0.99825 0.4473-0.99825 0.99915 0 0.55186 0.4482 0.99734 0.99825 0.99734 0.55094 0 0.99917-0.44548 0.99917-0.99734 0-0.55185-0.44823-0.99915-0.99917-0.99915"/>
     <path d="m138.1 125.74c-0.19911 0-0.36001-0.16183-0.36001-0.36003 0-0.19819 0.1609-0.35911 0.36001-0.35911 0.19819 0 0.35912 0.16092 0.35912 0.35911 0 0.1982-0.16093 0.36003-0.35912 0.36003m-1.6001 2.7774c-0.84917 0-1.5374-0.68914-1.5374-1.5383 0-0.84915 0.6882-1.5383 1.5374-1.5383 0.85097 0 1.5383 0.68913 1.5383 1.5383 0 0.84914-0.68732 1.5383-1.5383 1.5383m2.3356-3.3048c-0.0545-0.14001-0.1191-0.24002-0.22366-0.34457-0.10544-0.10455-0.20546-0.17001-0.34456-0.22456-0.10636-0.0409-0.26366-0.0891-0.5564-0.10182-0.31637-0.0145-0.41003-0.0191-1.211-0.0191-0.79915 0-0.89369 5e-3 -1.2101 0.0191-0.29181 0.0127-0.45092 0.0609-0.55548 0.10182-0.14002 0.0546-0.24003 0.12001-0.34548 0.22456-0.10364 0.10455-0.17 0.20456-0.22366 0.34457-0.0409 0.10546-0.09 0.26366-0.10181 0.5564-0.0155 0.31639-0.019 0.41003-0.019 1.2101 0 0.79914 4e-3 0.89551 0.019 1.2092 0.012 0.29365 0.0609 0.45185 0.10181 0.55822 0.0537 0.1391 0.12002 0.2382 0.22366 0.34456 0.10545 0.10365 0.20546 0.1682 0.34548 0.22366 0.10456 0.0409 0.26367 0.0882 0.55548 0.10273 0.31641 0.0145 0.41095 0.0164 1.2101 0.0164 0.80095 0 0.89461-2e-3 1.211-0.0164 0.29274-0.0145 0.45004-0.0618 0.5564-0.10273 0.1391-0.0555 0.23912-0.12001 0.34456-0.22366 0.10456-0.10636 0.16912-0.20546 0.22366-0.34456 0.0409-0.10637 0.09-0.26457 0.10456-0.55822 0.0138-0.31366 0.0155-0.41003 0.0155-1.2092 0-0.80005-4e-3 -0.89369-0.0155-1.2101-0.0145-0.29274-0.0636-0.45094-0.10456-0.5564"/>
    </g>
    <path d="m139.47 128.22c-0.0155 0.31911-0.0645 0.5364-0.1391 0.72732-0.0764 0.19638-0.18002 0.36366-0.34547 0.53003-0.16729 0.16638-0.33366 0.26912-0.53093 0.3464-0.19004 0.0736-0.40732 0.12365-0.72644 0.1391-0.32001 0.0145-0.42274 0.0173-1.2355 0.0173-0.81368 0-0.91457-3e-3 -1.2355-0.0173-0.3182-0.0155-0.53728-0.0655-0.7264-0.1391-0.19728-0.0773-0.36365-0.18002-0.53093-0.3464-0.16637-0.16637-0.26822-0.33365-0.34456-0.53003-0.0755-0.19092-0.12548-0.40821-0.14002-0.72732-0.0145-0.32001-0.0183-0.42183-0.0183-1.2346 0-0.81459 4e-3 -0.91551 0.0183-1.2355 0.0145-0.31911 0.0645-0.53731 0.14002-0.72732 0.0763-0.19637 0.17819-0.36366 0.34456-0.53094 0.16728-0.16638 0.33365-0.26911 0.53093-0.34457 0.18912-0.0746 0.4082-0.12547 0.7264-0.14002 0.32096-0.0136 0.42185-0.0173 1.2355-0.0173 0.8128 0 0.91553 4e-3 1.2355 0.0173 0.31912 0.0145 0.5364 0.0655 0.72644 0.14002 0.19727 0.0755 0.36364 0.17819 0.53093 0.34457 0.16545 0.16728 0.2691 0.33457 0.34547 0.53094 0.0745 0.19001 0.12365 0.40821 0.1391 0.72732 0.0155 0.32002 0.0183 0.42094 0.0183 1.2355 0 0.81279-4e-3 0.91461-0.0183 1.2346m-2.9775-5.9922c-2.6274 0-4.7576 2.1292-4.7576 4.7576 0 2.6265 2.1302 4.7567 4.7576 4.7567 2.6275 0 4.7567-2.1302 4.7567-4.7567 0-2.6284-2.1292-4.7576-4.7567-4.7576" fill="#f00"/>
   </g>
  </a>
  <a transform="translate(-.38975)" onclick="" onmouseout='style="opacity:1"' onmouseover='style="opacity:0.6"' target="_blank" xlink:href="https://twitter.com/gidasutnfrlp" xlink:title="Seguinos en Twitter">
   <g fill-rule="evenodd">
    <path d="m149.58 122.23c-2.6265 0-4.7576 2.1292-4.7576 4.7567 0 2.6274 2.1311 4.7576 4.7576 4.7576 2.6274 0 4.7576-2.1301 4.7576-4.7576 0-2.6274-2.1301-4.7567-4.7576-4.7567" fill="#f00"/>
    <path d="m152.21 125.97c4e-3 0.0536 4e-3 0.10819 4e-3 0.16274 0 1.6692-1.2719 3.5957-3.5957 3.5957-0.71279 0-1.3774-0.21002-1.9356-0.56822 0.0982 0.0109 0.19911 0.0164 0.30004 0.0164 0.59274 0 1.1373-0.20093 1.5701-0.53913-0.55369-0.0109-1.0201-0.37548-1.1801-0.87824 0.0773 0.0145 0.15635 0.0227 0.23728 0.0227 0.11455 0 0.22638-0.0155 0.33274-0.0446-0.57732-0.11637-1.0137-0.6264-1.0137-1.2383v-0.0164c0.17001 0.0955 0.36456 0.15092 0.57186 0.15819-0.33913-0.22729-0.56275-0.61367-0.56275-1.051 0-0.23183 0.0636-0.4482 0.17272-0.63549 0.62187 0.7646 1.5537 1.2674 2.6029 1.3201-0.0219-0.0936-0.0318-0.1891-0.0318-0.28729 0-0.69822 0.56458-1.2637 1.2628-1.2637 0.36368 0 0.69187 0.15274 0.92188 0.3973 0.2873-0.0555 0.55823-0.16001 0.80186-0.30547-0.0945 0.29547-0.29365 0.54276-0.55457 0.69913 0.25457-0.0309 0.49823-0.0982 0.72461-0.1991-0.1682 0.25365-0.38276 0.47639-0.62914 0.65459" fill="#fff"/>
   </g>
  </a>
  <a onclick="" onload="" onmouseout='style="opacity:1"' onmouseover='style="opacity:0.6;fill:darkred"' target="_blank" xlink:href="https://es-la.facebook.com/gidasutn/" xlink:title="Seguinos en Facebook">
   <g>
    <path d="m123.2 122.23c-2.6265 0-4.7576 2.1292-4.7576 4.7567s2.1311 4.7576 4.7576 4.7576c2.6274 0 4.7576-2.1301 4.7576-4.7576 0-2.6274-2.1301-4.7567-4.7576-4.7567" fill="#fff" fill-rule="evenodd"/>
    <path d="m123.2 122.26c-2.6283 0-4.7576 2.1292-4.7576 4.7567 0 2.3747 1.7401 4.343 4.0139 4.6994v-3.3238h-1.2074v-1.3756h1.2074v-1.0482c0-1.1919 0.71003-1.851 1.7965-1.851 0.52095 0 1.0655 0.0936 1.0655 0.0936v1.171h-0.59912c-0.59097 0-0.77734 0.36638-0.77734 0.74277v0.89188h1.321l-0.21185 1.3755h-1.1092v3.3239c2.2747-0.35639 4.0157-2.3247 4.0157-4.6994 0-2.6274-2.1293-4.7567-4.7576-4.7567" fill="#f00" onmouseout="" onmouseover=""/>
   </g>
  </a>
  <a transform="translate(-.13977)" onclick="" onmouseout='style="opacity:1"' onmouseover='style="opacity:0.6"' target="_blank" xlink:href="https://ar.linkedin.com/company/gidas-utn-frlp" xlink:title="Seguinos en Linkedin">
   <path d="m162.33 122.23c-2.6265 0-4.7576 2.1292-4.7576 4.7567 0 2.6274 2.1311 4.7576 4.7576 4.7576 2.6274 0 4.7576-2.1301 4.7576-4.7576 0-2.6274-2.1301-4.7567-4.7576-4.7567" fill="#f00" fill-rule="evenodd"/>
   <g transform="matrix(.6447 0 0 .6447 118.16 22.082)" fill="#fff" stroke-width=".4104" aria-label="">
    <path d="m66.449 160.78h-1.9489v5.8527h1.9489zm0.12402-1.8072c-0.0059-0.57287-0.41932-1.0099-1.0867-1.0099-0.66146 0-1.0985 0.43703-1.0985 1.0099 0 0.56106 0.41932 1.0099 1.0749 1.0099h0.01181c0.67917 0 1.1044-0.44884 1.0985-1.0099zm6.8862 4.3054c0-1.7954-0.95675-2.634-2.2383-2.634-1.0512 0-1.5119 0.58468-1.7659 0.98628h0.01181v-0.85044h-1.943s0.02362 0.54924 0 5.8527h1.943v-3.2659c0-0.17717 0.01772-0.34844 0.06497-0.47837 0.14174-0.34845 0.46066-0.70871 0.99809-0.70871 0.7028 0 0.98628 0.53744 0.98628 1.3229v3.1301h1.943z" fill="#fff" stroke-width=".4104"/>
   </g>
  </a>
  <a transform="translate(2.8516e-5)" onclick="" onmouseout='style="opacity:1"' onmouseover='style="opacity:0.6"' target="_blank" xlink:href="https://www.youtube.com/channel/UCK4omrtglZc6lC1S194UWbw" xlink:title="Seguinos en Youtube">
   <path d="m175.18 122.23c-2.6265 0-4.7576 2.1292-4.7576 4.7567 0 2.6274 2.1311 4.7576 4.7576 4.7576 2.6274 0 4.7576-2.1301 4.7576-4.7576 0-2.6274-2.1301-4.7567-4.7576-4.7567" fill="#f00" fill-rule="evenodd"/>
   <path d="m178.08 125.52c-0.0694-0.26148-0.27405-0.46742-0.53384-0.5373-0.47088-0.12699-2.3591-0.12699-2.3591-0.12699s-1.8882 0-2.3591 0.12699c-0.25979 0.0699-0.46439 0.27582-0.53384 0.5373-0.12617 0.47394-0.12617 1.4628-0.12617 1.4628s0 0.98885 0.12617 1.4628c0.0695 0.26148 0.27405 0.45883 0.53384 0.52872 0.47089 0.12699 2.3591 0.12699 2.3591 0.12699s1.8882 0 2.3591-0.12699c0.25979-0.0699 0.4644-0.26724 0.53384-0.52872 0.12617-0.47394 0.12617-1.4628 0.12617-1.4628s0-0.98884-0.12617-1.4628zm-3.5104 2.3606v-1.7956l1.5781 0.89782z" fill="#fff" stroke-width=".26458"/>
  </a>
 </g>
</svg>
